<svg width="420" height="420" viewBox="0 0 420 420" fill="none" xmlns="http://www.w3.org/2000/svg">
  <rect width="420" height="420" rx="28" fill="white"/>
  <g fill="black">
    <rect x="18" y="18" width="62" height="62" rx="6"/>
    <rect x="30" y="30" width="38" height="38" rx="4" fill="white"/>
    <rect x="40" y="40" width="18" height="18" rx="2"/>

    <rect x="340" y="18" width="62" height="62" rx="6"/>
    <rect x="352" y="30" width="38" height="38" rx="4" fill="white"/>
    <rect x="362" y="40" width="18" height="18" rx="2"/>

    <rect x="18" y="340" width="62" height="62" rx="6"/>
    <rect x="30" y="352" width="38" height="38" rx="4" fill="white"/>
    <rect x="40" y="362" width="18" height="18" rx="2"/>
  </g>

  <g fill="black">
    <rect x="98" y="20" width="8" height="8" rx="2"/>
    <rect x="110" y="20" width="8" height="8" rx="2"/>
    <rect x="122" y="20" width="8" height="8" rx="2"/>
    <rect x="134" y="20" width="8" height="8" rx="2"/>
    <rect x="170" y="20" width="8" height="8" rx="2"/>
    <rect x="182" y="20" width="8" height="8" rx="2"/>
    <rect x="218" y="20" width="8" height="8" rx="2"/>
    <rect x="230" y="20" width="8" height="8" rx="2"/>
    <rect x="242" y="20" width="8" height="8" rx="2"/>
    <rect x="278" y="20" width="8" height="8" rx="2"/>
    <rect x="290" y="20" width="8" height="8" rx="2"/>
    <rect x="314" y="20" width="8" height="8" rx="2"/>
    <rect x="326" y="20" width="8" height="8" rx="2"/>
    <rect x="110" y="32" width="8" height="8" rx="2"/>
    <rect x="122" y="32" width="8" height="8" rx="2"/>
    <rect x="146" y="32" width="8" height="8" rx="2"/>
    <rect x="170" y="32" width="8" height="8" rx="2"/>
    <rect x="182" y="32" width="8" height="8" rx="2"/>
    <rect x="230" y="32" width="8" height="8" rx="2"/>
    <rect x="242" y="32" width="8" height="8" rx="2"/>
    <rect x="302" y="32" width="8" height="8" rx="2"/>
    <rect x="314" y="32" width="8" height="8" rx="2"/>
    <rect x="326" y="32" width="8" height="8" rx="2"/>
    <rect x="86" y="44" width="8" height="8" rx="2"/>
    <rect x="110" y="44" width="8" height="8" rx="2"/>
    <rect x="122" y="44" width="8" height="8" rx="2"/>
    <rect x="134" y="44" width="8" height="8" rx="2"/>
    <rect x="146" y="44" width="8" height="8" rx="2"/>
    <rect x="194" y="44" width="8" height="8" rx="2"/>
    <rect x="230" y="44" width="8" height="8" rx="2"/>
    <rect x="254" y="44" width="8" height="8" rx="2"/>
    <rect x="302" y="44" width="8" height="8" rx="2"/>
    <rect x="338" y="44" width="8" height="8" rx="2"/>
    <rect x="74" y="56" width="8" height="8" rx="2"/>
    <rect x="98" y="56" width="8" height="8" rx="2"/>
    <rect x="110" y="56" width="8" height="8" rx="2"/>
    <rect x="122" y="56" width="8" height="8" rx="2"/>
    <rect x="206" y="56" width="8" height="8" rx="2"/>
    <rect x="218" y="56" width="8" height="8" rx="2"/>
    <rect x="230" y="56" width="8" height="8" rx="2"/>
    <rect x="242" y="56" width="8" height="8" rx="2"/>
    <rect x="254" y="56" width="8" height="8" rx="2"/>
    <rect x="278" y="56" width="8" height="8" rx="2"/>
    <rect x="290" y="56" width="8" height="8" rx="2"/>
    <rect x="314" y="56" width="8" height="8" rx="2"/>
    <rect x="326" y="56" width="8" height="8" rx="2"/>
    <rect x="62" y="68" width="8" height="8" rx="2"/>
    <rect x="74" y="68" width="8" height="8" rx="2"/>
    <rect x="86" y="68" width="8" height="8" rx="2"/>
    <rect x="110" y="68" width="8" height="8" rx="2"/>
    <rect x="146" y="68" width="8" height="8" rx="2"/>
    <rect x="170" y="68" width="8" height="8" rx="2"/>
    <rect x="182" y="68" width="8" height="8" rx="2"/>
    <rect x="194" y="68" width="8" height="8" rx="2"/>
    <rect x="206" y="68" width="8" height="8" rx="2"/>
    <rect x="230" y="68" width="8" height="8" rx="2"/>
    <rect x="278" y="68" width="8" height="8" rx="2"/>
    <rect x="290" y="68" width="8" height="8" rx="2"/>
    <rect x="302" y="68" width="8" height="8" rx="2"/>
    <rect x="326" y="68" width="8" height="8" rx="2"/>

    <rect x="20" y="98" width="8" height="8" rx="2"/>
    <rect x="56" y="98" width="8" height="8" rx="2"/>
    <rect x="80" y="98" width="8" height="8" rx="2"/>
    <rect x="104" y="98" width="8" height="8" rx="2"/>
    <rect x="140" y="98" width="8" height="8" rx="2"/>
    <rect x="152" y="98" width="8" height="8" rx="2"/>
    <rect x="176" y="98" width="8" height="8" rx="2"/>
    <rect x="188" y="98" width="8" height="8" rx="2"/>
    <rect x="212" y="98" width="8" height="8" rx="2"/>
    <rect x="236" y="98" width="8" height="8" rx="2"/>
    <rect x="260" y="98" width="8" height="8" rx="2"/>
    <rect x="284" y="98" width="8" height="8" rx="2"/>
    <rect x="320" y="98" width="8" height="8" rx="2"/>
    <rect x="344" y="98" width="8" height="8" rx="2"/>
    <rect x="368" y="98" width="8" height="8" rx="2"/>
    <rect x="392" y="98" width="8" height="8" rx="2"/>
    <rect x="32" y="110" width="8" height="8" rx="2"/>
    <rect x="68" y="110" width="8" height="8" rx="2"/>
    <rect x="92" y="110" width="8" height="8" rx="2"/>
    <rect x="116" y="110" width="8" height="8" rx="2"/>
    <rect x="140" y="110" width="8" height="8" rx="2"/>
    <rect x="188" y="110" width="8" height="8" rx="2"/>
    <rect x="212" y="110" width="8" height="8" rx="2"/>
    <rect x="224" y="110" width="8" height="8" rx="2"/>
    <rect x="248" y="110" width="8" height="8" rx="2"/>
    <rect x="272" y="110" width="8" height="8" rx="2"/>
    <rect x="296" y="110" width="8" height="8" rx="2"/>
    <rect x="332" y="110" width="8" height="8" rx="2"/>
    <rect x="356" y="110" width="8" height="8" rx="2"/>
    <rect x="380" y="110" width="8" height="8" rx="2"/>
    <rect x="20" y="122" width="8" height="8" rx="2"/>
    <rect x="32" y="122" width="8" height="8" rx="2"/>
    <rect x="56" y="122" width="8" height="8" rx="2"/>
    <rect x="92" y="122" width="8" height="8" rx="2"/>
    <rect x="116" y="122" width="8" height="8" rx="2"/>
    <rect x="140" y="122" width="8" height="8" rx="2"/>
    <rect x="164" y="122" width="8" height="8" rx="2"/>
    <rect x="176" y="122" width="8" height="8" rx="2"/>
    <rect x="212" y="122" width="8" height="8" rx="2"/>
    <rect x="236" y="122" width="8" height="8" rx="2"/>
    <rect x="248" y="122" width="8" height="8" rx="2"/>
    <rect x="272" y="122" width="8" height="8" rx="2"/>
    <rect x="308" y="122" width="8" height="8" rx="2"/>
    <rect x="320" y="122" width="8" height="8" rx="2"/>
    <rect x="344" y="122" width="8" height="8" rx="2"/>
    <rect x="368" y="122" width="8" height="8" rx="2"/>
    <rect x="392" y="122" width="8" height="8" rx="2"/>

    <rect x="24" y="146" width="8" height="8" rx="2"/>
    <rect x="60" y="146" width="8" height="8" rx="2"/>
    <rect x="84" y="146" width="8" height="8" rx="2"/>
    <rect x="108" y="146" width="8" height="8" rx="2"/>
    <rect x="132" y="146" width="8" height="8" rx="2"/>
    <rect x="156" y="146" width="8" height="8" rx="2"/>
    <rect x="180" y="146" width="8" height="8" rx="2"/>
    <rect x="216" y="146" width="8" height="8" rx="2"/>
    <rect x="240" y="146" width="8" height="8" rx="2"/>
    <rect x="276" y="146" width="8" height="8" rx="2"/>
    <rect x="288" y="146" width="8" height="8" rx="2"/>
    <rect x="312" y="146" width="8" height="8" rx="2"/>
    <rect x="336" y="146" width="8" height="8" rx="2"/>
    <rect x="360" y="146" width="8" height="8" rx="2"/>
    <rect x="396" y="146" width="8" height="8" rx="2"/>
    <rect x="20" y="158" width="8" height="8" rx="2"/>
    <rect x="44" y="158" width="8" height="8" rx="2"/>
    <rect x="68" y="158" width="8" height="8" rx="2"/>
    <rect x="92" y="158" width="8" height="8" rx="2"/>
    <rect x="116" y="158" width="8" height="8" rx="2"/>
    <rect x="140" y="158" width="8" height="8" rx="2"/>
    <rect x="164" y="158" width="8" height="8" rx="2"/>
    <rect x="188" y="158" width="8" height="8" rx="2"/>
    <rect x="212" y="158" width="8" height="8" rx="2"/>
    <rect x="236" y="158" width="8" height="8" rx="2"/>
    <rect x="260" y="158" width="8" height="8" rx="2"/>
    <rect x="284" y="158" width="8" height="8" rx="2"/>
    <rect x="320" y="158" width="8" height="8" rx="2"/>
    <rect x="344" y="158" width="8" height="8" rx="2"/>
    <rect x="368" y="158" width="8" height="8" rx="2"/>
    <rect x="392" y="158" width="8" height="8" rx="2"/>
    <rect x="32" y="170" width="8" height="8" rx="2"/>
    <rect x="80" y="170" width="8" height="8" rx="2"/>
    <rect x="104" y="170" width="8" height="8" rx="2"/>
    <rect x="128" y="170" width="8" height="8" rx="2"/>
    <rect x="152" y="170" width="8" height="8" rx="2"/>
    <rect x="188" y="170" width="8" height="8" rx="2"/>
    <rect x="212" y="170" width="8" height="8" rx="2"/>
    <rect x="248" y="170" width="8" height="8" rx="2"/>
    <rect x="260" y="170" width="8" height="8" rx="2"/>
    <rect x="284" y="170" width="8" height="8" rx="2"/>
    <rect x="308" y="170" width="8" height="8" rx="2"/>
    <rect x="332" y="170" width="8" height="8" rx="2"/>
    <rect x="368" y="170" width="8" height="8" rx="2"/>

    <rect x="20" y="194" width="8" height="8" rx="2"/>
    <rect x="44" y="194" width="8" height="8" rx="2"/>
    <rect x="68" y="194" width="8" height="8" rx="2"/>
    <rect x="92" y="194" width="8" height="8" rx="2"/>
    <rect x="116" y="194" width="8" height="8" rx="2"/>
    <rect x="152" y="194" width="8" height="8" rx="2"/>
    <rect x="176" y="194" width="8" height="8" rx="2"/>
    <rect x="200" y="194" width="8" height="8" rx="2"/>
    <rect x="224" y="194" width="8" height="8" rx="2"/>
    <rect x="248" y="194" width="8" height="8" rx="2"/>
    <rect x="284" y="194" width="8" height="8" rx="2"/>
    <rect x="308" y="194" width="8" height="8" rx="2"/>
    <rect x="332" y="194" width="8" height="8" rx="2"/>
    <rect x="356" y="194" width="8" height="8" rx="2"/>
    <rect x="380" y="194" width="8" height="8" rx="2"/>
    <rect x="32" y="206" width="8" height="8" rx="2"/>
    <rect x="56" y="206" width="8" height="8" rx="2"/>
    <rect x="80" y="206" width="8" height="8" rx="2"/>
    <rect x="104" y="206" width="8" height="8" rx="2"/>
    <rect x="128" y="206" width="8" height="8" rx="2"/>
    <rect x="152" y="206" width="8" height="8" rx="2"/>
    <rect x="176" y="206" width="8" height="8" rx="2"/>
    <rect x="200" y="206" width="8" height="8" rx="2"/>
    <rect x="236" y="206" width="8" height="8" rx="2"/>
    <rect x="272" y="206" width="8" height="8" rx="2"/>
    <rect x="296" y="206" width="8" height="8" rx="2"/>
    <rect x="320" y="206" width="8" height="8" rx="2"/>
    <rect x="356" y="206" width="8" height="8" rx="2"/>
    <rect x="392" y="206" width="8" height="8" rx="2"/>
    <rect x="20" y="218" width="8" height="8" rx="2"/>
    <rect x="44" y="218" width="8" height="8" rx="2"/>
    <rect x="92" y="218" width="8" height="8" rx="2"/>
    <rect x="116" y="218" width="8" height="8" rx="2"/>
    <rect x="140" y="218" width="8" height="8" rx="2"/>
    <rect x="176" y="218" width="8" height="8" rx="2"/>
    <rect x="212" y="218" width="8" height="8" rx="2"/>
    <rect x="236" y="218" width="8" height="8" rx="2"/>
    <rect x="260" y="218" width="8" height="8" rx="2"/>
    <rect x="296" y="218" width="8" height="8" rx="2"/>
    <rect x="320" y="218" width="8" height="8" rx="2"/>
    <rect x="344" y="218" width="8" height="8" rx="2"/>
    <rect x="380" y="218" width="8" height="8" rx="2"/>

    <rect x="20" y="284" width="8" height="8" rx="2"/>
    <rect x="56" y="284" width="8" height="8" rx="2"/>
    <rect x="92" y="284" width="8" height="8" rx="2"/>
    <rect x="116" y="284" width="8" height="8" rx="2"/>
    <rect x="152" y="284" width="8" height="8" rx="2"/>
    <rect x="176" y="284" width="8" height="8" rx="2"/>
    <rect x="212" y="284" width="8" height="8" rx="2"/>
    <rect x="236" y="284" width="8" height="8" rx="2"/>
    <rect x="260" y="284" width="8" height="8" rx="2"/>
    <rect x="296" y="284" width="8" height="8" rx="2"/>
    <rect x="332" y="284" width="8" height="8" rx="2"/>
    <rect x="356" y="284" width="8" height="8" rx="2"/>
    <rect x="380" y="284" width="8" height="8" rx="2"/>
    <rect x="44" y="296" width="8" height="8" rx="2"/>
    <rect x="68" y="296" width="8" height="8" rx="2"/>
    <rect x="92" y="296" width="8" height="8" rx="2"/>
    <rect x="140" y="296" width="8" height="8" rx="2"/>
    <rect x="176" y="296" width="8" height="8" rx="2"/>
    <rect x="200" y="296" width="8" height="8" rx="2"/>
    <rect x="224" y="296" width="8" height="8" rx="2"/>
    <rect x="260" y="296" width="8" height="8" rx="2"/>
    <rect x="296" y="296" width="8" height="8" rx="2"/>
    <rect x="332" y="296" width="8" height="8" rx="2"/>
    <rect x="356" y="296" width="8" height="8" rx="2"/>
    <rect x="392" y="296" width="8" height="8" rx="2"/>
    <rect x="20" y="308" width="8" height="8" rx="2"/>
    <rect x="56" y="308" width="8" height="8" rx="2"/>
    <rect x="80" y="308" width="8" height="8" rx="2"/>
    <rect x="116" y="308" width="8" height="8" rx="2"/>
    <rect x="152" y="308" width="8" height="8" rx="2"/>
    <rect x="188" y="308" width="8" height="8" rx="2"/>
    <rect x="212" y="308" width="8" height="8" rx="2"/>
    <rect x="248" y="308" width="8" height="8" rx="2"/>
    <rect x="284" y="308" width="8" height="8" rx="2"/>
    <rect x="320" y="308" width="8" height="8" rx="2"/>
    <rect x="344" y="308" width="8" height="8" rx="2"/>
    <rect x="380" y="308" width="8" height="8" rx="2"/>
    <rect x="32" y="320" width="8" height="8" rx="2"/>
    <rect x="68" y="320" width="8" height="8" rx="2"/>
    <rect x="92" y="320" width="8" height="8" rx="2"/>
    <rect x="116" y="320" width="8" height="8" rx="2"/>
    <rect x="152" y="320" width="8" height="8" rx="2"/>
    <rect x="188" y="320" width="8" height="8" rx="2"/>
    <rect x="212" y="320" width="8" height="8" rx="2"/>
    <rect x="236" y="320" width="8" height="8" rx="2"/>
    <rect x="260" y="320" width="8" height="8" rx="2"/>
    <rect x="296" y="320" width="8" height="8" rx="2"/>
    <rect x="320" y="320" width="8" height="8" rx="2"/>
    <rect x="344" y="320" width="8" height="8" rx="2"/>
    <rect x="368" y="320" width="8" height="8" rx="2"/>
    <rect x="392" y="320" width="8" height="8" rx="2"/>

    <rect x="104" y="344" width="8" height="8" rx="2"/>
    <rect x="128" y="344" width="8" height="8" rx="2"/>
    <rect x="152" y="344" width="8" height="8" rx="2"/>
    <rect x="176" y="344" width="8" height="8" rx="2"/>
    <rect x="212" y="344" width="8" height="8" rx="2"/>
    <rect x="236" y="344" width="8" height="8" rx="2"/>
    <rect x="272" y="344" width="8" height="8" rx="2"/>
    <rect x="296" y="344" width="8" height="8" rx="2"/>
    <rect x="320" y="344" width="8" height="8" rx="2"/>
    <rect x="356" y="344" width="8" height="8" rx="2"/>
    <rect x="380" y="344" width="8" height="8" rx="2"/>
    <rect x="92" y="356" width="8" height="8" rx="2"/>
    <rect x="116" y="356" width="8" height="8" rx="2"/>
    <rect x="140" y="356" width="8" height="8" rx="2"/>
    <rect x="176" y="356" width="8" height="8" rx="2"/>
    <rect x="188" y="356" width="8" height="8" rx="2"/>
    <rect x="224" y="356" width="8" height="8" rx="2"/>
    <rect x="248" y="356" width="8" height="8" rx="2"/>
    <rect x="272" y="356" width="8" height="8" rx="2"/>
    <rect x="296" y="356" width="8" height="8" rx="2"/>
    <rect x="320" y="356" width="8" height="8" rx="2"/>
    <rect x="344" y="356" width="8" height="8" rx="2"/>
    <rect x="368" y="356" width="8" height="8" rx="2"/>
    <rect x="392" y="356" width="8" height="8" rx="2"/>
    <rect x="116" y="368" width="8" height="8" rx="2"/>
    <rect x="140" y="368" width="8" height="8" rx="2"/>
    <rect x="164" y="368" width="8" height="8" rx="2"/>
    <rect x="176" y="368" width="8" height="8" rx="2"/>
    <rect x="200" y="368" width="8" height="8" rx="2"/>
    <rect x="236" y="368" width="8" height="8" rx="2"/>
    <rect x="260" y="368" width="8" height="8" rx="2"/>
    <rect x="296" y="368" width="8" height="8" rx="2"/>
    <rect x="332" y="368" width="8" height="8" rx="2"/>
    <rect x="368" y="368" width="8" height="8" rx="2"/>
    <rect x="392" y="368" width="8" height="8" rx="2"/>
    <rect x="104" y="380" width="8" height="8" rx="2"/>
    <rect x="128" y="380" width="8" height="8" rx="2"/>
    <rect x="152" y="380" width="8" height="8" rx="2"/>
    <rect x="188" y="380" width="8" height="8" rx="2"/>
    <rect x="212" y="380" width="8" height="8" rx="2"/>
    <rect x="248" y="380" width="8" height="8" rx="2"/>
    <rect x="272" y="380" width="8" height="8" rx="2"/>
    <rect x="308" y="380" width="8" height="8" rx="2"/>
    <rect x="344" y="380" width="8" height="8" rx="2"/>
    <rect x="368" y="380" width="8" height="8" rx="2"/>
  </g>

  <rect x="165" y="165" width="90" height="90" rx="18" fill="black"/>
  <circle cx="197" cy="205" r="18" fill="white"/>
  <circle cx="229" cy="218" r="16" fill="white"/>
  <circle cx="190" cy="199" r="2.5" fill="black"/>
  <circle cx="204" cy="199" r="2.5" fill="black"/>
  <circle cx="223" cy="214" r="2.5" fill="black"/>
  <circle cx="236" cy="214" r="2.5" fill="black"/>
  <path d="M185 219L191 225L193 216Z" fill="white"/>
  <path d="M235 232L240 237L241 229Z" fill="white"/>
</svg>
