<svg width="56" height="56" viewBox="0 0 56 56" fill="none" xmlns="http://www.w3.org/2000/svg">
<path d="M14.8021 36.7639C11.0278 35.6118 8.28243 32.1239 8.28243 28.0002C8.28243 23.8766 11.0862 20.3134 14.9249 19.2002C15.3173 19.0857 15.2144 18.8311 14.7411 18.8311C9.63826 18.8311 5.5 22.9382 5.5 28.0006C5.5 33.063 9.63788 37.169 14.7411 37.169C15.214 37.169 15.2331 36.8957 14.8021 36.7643V36.7639Z" fill="#00A4EB"/>
<path d="M10.0335 30.148C10.008 29.9017 9.99568 29.6527 9.99568 29.4014C9.99568 25.3815 13.2551 22.1228 17.2758 22.1228C21.0771 22.1228 22.2184 23.8193 22.3599 23.7085C22.5142 23.5864 20.9805 20.2236 16.5169 20.2236C12.4958 20.2236 9.23633 23.4823 9.23633 27.5023C9.23633 28.4324 9.41044 29.319 9.72796 30.1349C9.86201 30.4772 10.0679 30.4802 10.0339 30.148H10.0335Z" fill="#00A4EB"/>
<path d="M13.0835 24.9019C14.9755 24.077 17.3525 24.0519 19.6893 24.8686C21.2586 25.416 22.1681 26.1978 22.2426 26.1656C22.3665 26.1121 21.3297 24.4702 19.4583 23.7602C17.1926 22.9016 14.752 23.351 12.9738 24.7457C12.7783 24.8996 12.8521 25.003 13.0835 24.9019Z" fill="#00A4EB"/>
<path d="M50.5006 28.326C50.5006 28.8543 50.0722 29.2816 49.5454 29.2816C49.0186 29.2816 48.5898 28.8543 48.5898 28.326C48.5898 27.7977 49.0174 27.3716 49.5454 27.3716C50.0734 27.3716 50.5006 27.7992 50.5006 28.326Z" fill="#00A4EB"/>
<path d="M19.205 32.2488H17.3613L18.9481 29.0328H18.9665L19.205 32.2488ZM19.2941 33.6952L19.4068 34.9709H21.4269L20.7469 27.5474H17.7387L13.9355 34.9709H15.9934L16.6319 33.6952H19.2945H19.2941Z" fill="white"/>
<path d="M24.2435 31.7249H24.5393L25.985 29.7738H27.8568L25.8595 32.269L27.0847 34.9709H25.0972L24.2989 32.8614H24.0012L23.5519 34.9709H21.8516L23.4279 27.5474H25.1312L24.2435 31.7249Z" fill="white"/>
<path d="M30.0365 32.8234C30.5914 32.8234 30.9576 32.8616 30.8655 33.2978C30.7487 33.8419 30.5135 33.9325 29.801 33.9325C29.5415 33.9325 29.0596 33.9325 29.1783 33.3682C29.2798 32.8908 29.6186 32.8238 30.0361 32.8238L30.0365 32.8234ZM30.5109 34.9712H32.2127L32.9024 31.7252C33.2806 29.9324 32.595 29.7148 30.8547 29.7148C29.6392 29.7148 28.4631 29.7044 28.1187 31.3186H29.8223C29.9189 30.852 30.2073 30.7554 30.6341 30.7554C31.3748 30.7554 31.3422 31.0628 31.2373 31.5451L31.0643 32.3685H30.9853C30.9209 31.7742 30.1762 31.7829 29.6928 31.7829C28.4639 31.7829 27.7319 32.1693 27.4645 33.418C27.1841 34.7424 27.815 35.0303 29.002 35.0303C29.5973 35.0303 30.393 34.9128 30.6742 34.1968H30.7326L30.5109 34.9712Z" fill="white"/>
<path d="M35.6484 29.774L35.4927 30.5064H35.5623C35.9 29.8927 36.5722 29.7148 37.1555 29.7148C37.8887 29.7148 38.6121 29.8425 38.5114 30.7348H38.5907C38.8401 29.9938 39.5995 29.7148 40.2529 29.7148C41.4522 29.7148 41.9599 30.2102 41.7038 31.4196L40.9463 34.9715H39.2456L39.8859 31.9618C39.9694 31.4196 40.0664 31.022 39.4021 31.022C38.7379 31.022 38.5177 31.4638 38.3998 32.0206L37.7715 34.9715H36.0697L36.7388 31.824C36.8208 31.3481 36.8597 31.022 36.2659 31.022C35.5631 31.022 35.3545 31.3983 35.2249 32.0206L34.5951 34.9715H32.8926L33.9998 29.7744H35.6495L35.6484 29.774Z" fill="white"/>
<path d="M44.3824 32.8234C44.9336 32.8234 45.3024 32.8616 45.211 33.2978C45.0964 33.8419 44.8598 33.9325 44.145 33.9325C43.8874 33.9325 43.4029 33.9325 43.5227 33.3682C43.6245 32.8908 43.9645 32.8238 44.382 32.8238L44.3824 32.8234ZM44.8538 34.9712H46.5556L47.2461 31.7252C47.6261 29.9324 46.9424 29.7148 45.2017 29.7148C43.9814 29.7148 42.8038 29.7044 42.4642 31.3186H44.1675C44.2641 30.852 44.5554 30.7554 44.9762 30.7554C45.7206 30.7554 45.6836 31.0628 45.5858 31.5451L45.4083 32.3685H45.329C45.2653 31.7742 44.5217 31.7829 44.0383 31.7829C42.8105 31.7829 42.0751 32.1693 41.8104 33.418C41.5296 34.7424 42.1601 35.0303 43.3478 35.0303C43.9424 35.0303 44.7385 34.9128 45.0208 34.1968H45.0792L44.8549 34.9712H44.8538Z" fill="white"/>
<path d="M49.0082 34.9711H47.3086L48.4098 29.7739H50.1135L49.0078 34.9711H49.0082Z" fill="white"/>
</svg>
