<svg width="56" height="56" viewBox="0 0 56 56" fill="none" xmlns="http://www.w3.org/2000/svg">
<path d="M41.376 15.3887C45.07 15.3889 48 18.4465 48 22.1406V33.9873C48 37.6814 45.07 40.6111 41.376 40.6113H32.5859L34.751 37.5537L41.1211 35.5156C42.2674 35.1334 43.0312 33.9872 43.0312 32.8408V23.1592C43.0312 22.0128 42.2674 20.8666 41.1211 20.4844L34.751 18.4463L32.5859 15.3887H41.376ZM23.4141 15.3887L21.248 18.4463L14.8789 20.4844C13.7325 20.8666 12.9678 22.0128 12.9678 23.1592V32.8408C12.9678 33.9872 13.7325 35.1334 14.8789 35.5156L21.248 37.4268L23.4141 40.4844H14.624C10.9298 40.4843 8 37.5536 8 33.8594V22.1406C8 18.4464 10.9298 15.3887 14.624 15.3887H23.4141ZM34.7529 29.4014H21.377V26.3438H34.7529V29.4014Z" fill="#FF6A00"/>
</svg>
