<svg width="56" height="56" viewBox="0 0 56 56" fill="none" xmlns="http://www.w3.org/2000/svg">
<g clip-path="url(#clip0_1709_22)">
<path d="M44.1918 17.35L37.5535 21.2C37.3261 21.3299 37.0687 21.3983 36.8068 21.3983C36.5449 21.3983 36.2875 21.3299 36.0601 21.2L28.7335 16.9733C28.5059 16.8431 28.2482 16.7746 27.986 16.7746C27.7237 16.7746 27.4661 16.8431 27.2385 16.9733L19.9268 21.2C19.6994 21.3299 19.442 21.3983 19.1801 21.3983C18.9182 21.3983 18.6609 21.3299 18.4335 21.2L11.7935 17.3617L28.0035 8L44.1918 17.35Z" fill="#5BCA87"/>
<path d="M39.0685 23.7783C38.8454 23.9099 38.6606 24.0976 38.5325 24.3227C38.4044 24.5479 38.3376 24.8027 38.3385 25.0617V33.515C38.3373 33.775 38.2682 34.0301 38.1381 34.2552C38.0081 34.4803 37.8215 34.6675 37.5969 34.7983L30.2169 38.9817C29.9891 39.112 29.8003 39.3007 29.6699 39.5283C29.5395 39.756 29.4723 40.0143 29.4752 40.2767V47.955L36.8569 43.7283L45.7069 38.65V19.9283L39.0685 23.7783Z" fill="#EC5D3E"/>
<path d="M26.2998 39.5684C26.1825 39.3331 26.0076 39.1313 25.7915 38.9817L18.4098 34.7884C18.1917 34.6547 18.0113 34.4676 17.8856 34.2448C17.7599 34.022 17.6931 33.7709 17.6915 33.5151V25.0517C17.6863 24.7941 17.6141 24.5423 17.482 24.321C17.3499 24.0998 17.1625 23.9168 16.9381 23.7901L16.1865 23.3567L10.2998 19.9301V38.6501L19.1515 43.7284L26.5431 48.0001V40.3201C26.5319 40.0525 26.4478 39.7915 26.2998 39.5684Z" fill="#2464F5"/>
</g>
<defs>
<clipPath id="clip0_1709_22">
<rect width="40" height="40" fill="white" transform="translate(8 8)"/>
</clipPath>
</defs>
</svg>
