<svg width="56" height="56" viewBox="0 0 56 56" fill="none" xmlns="http://www.w3.org/2000/svg">
<g clip-path="url(#clip0_27_222)">
<path d="M9.85962 39.9683H9.85352V35.1177H14.7041V39.9683H20.4942V32.4365H28.026V39.9439C36.0318 39.9341 42.2119 32.0088 39.1603 23.5874C38.5948 22.041 37.6983 20.6369 36.5335 19.4732C35.3688 18.3095 33.9639 17.4143 32.417 16.8502C23.9834 13.79 16.0532 19.986 16.0532 28.0004H8.50195C8.50195 15.2342 20.8355 5.28938 34.2159 9.46718C37.1083 10.3784 39.7383 11.9738 41.8826 14.1181C44.0269 16.2625 45.6224 18.8924 46.5336 21.7849C50.7101 35.1665 40.7714 47.5 28.0028 47.5V39.9683H20.4906V45.7536H14.7053V39.9683H9.85596H9.85962Z" fill="#0080FF"/>
</g>
<defs>
<clipPath id="clip0_27_222">
<rect width="39" height="39" fill="white" transform="translate(8.5 8.5)"/>
</clipPath>
</defs>
</svg>
