<svg width="56" height="56" viewBox="0 0 56 56" fill="none" xmlns="http://www.w3.org/2000/svg">
<g clip-path="url(#clip0_27_349)">
<path d="M49.1304 28.7609C49.549 28.6885 49.9435 28.5144 50.279 28.2538C50.432 28.0936 50.5491 27.9026 50.6226 27.6937C50.696 27.4847 50.7241 27.2624 50.705 27.0418C50.7061 26.6784 50.606 26.3219 50.4159 26.0123C50.2777 25.7767 50.0829 25.5793 49.8491 25.4381C49.6153 25.2968 49.35 25.2162 49.0771 25.2035H48.8008L48.1542 25.1807H45.2282C45.0507 25.1807 44.9746 25.2542 44.9746 25.4342V30.5611C44.9746 30.7386 45.0481 30.8147 45.2282 30.8147H45.9888C46.1663 30.8147 46.2424 30.7411 46.2424 30.5611V28.8623H47.1729C47.3776 28.873 47.5721 28.9546 47.7231 29.093L49.1988 30.5763C49.3334 30.7139 49.5139 30.797 49.706 30.8096H50.8393C51.0168 30.8096 51.0599 30.7056 50.9357 30.5789L49.1304 28.7609ZM48.9377 27.6706H46.2373V26.3774H48.9377C49.0701 26.3937 49.1918 26.4584 49.2793 26.5591C49.3669 26.6597 49.4141 26.7892 49.4118 26.9226V27.1229C49.4141 27.2566 49.367 27.3864 49.2795 27.4874C49.192 27.5885 49.0703 27.6537 48.9377 27.6706Z" fill="#D50C2D"/>
<path d="M43.7924 29.623H39.6011V28.5656H42.9455C43.123 28.5656 43.1991 28.4921 43.1991 28.3121V27.6959C43.1991 27.5184 43.1256 27.4424 42.9455 27.4424H39.5986V26.3876H43.7924C43.9699 26.3876 44.046 26.3141 44.046 26.134V25.4342C44.046 25.2567 43.9724 25.1807 43.7924 25.1807H38.5641C38.3866 25.1807 38.3105 25.2542 38.3105 25.4342V30.5662C38.3105 30.7437 38.3841 30.8197 38.5641 30.8197H43.7924C43.9699 30.8197 44.046 30.7462 44.046 30.5662V29.874C44.046 29.6965 43.9623 29.623 43.7924 29.623Z" fill="#D50C2D"/>
<path d="M37.3856 27.0316C37.3911 26.6728 37.2915 26.3203 37.0991 26.0174C36.96 25.7759 36.7628 25.573 36.5256 25.4269C36.2883 25.2808 36.0183 25.1962 35.74 25.1807H31.8961C31.7161 25.1807 31.6426 25.2542 31.6426 25.4342V30.5611C31.6426 30.7386 31.7161 30.8147 31.8961 30.8147H32.7227C32.9002 30.8147 32.9763 30.7437 32.9763 30.5611V26.38H35.2025C35.6766 26.38 36.1381 26.6944 36.1381 27.1685V30.5662C36.1381 30.7437 36.2116 30.8197 36.3917 30.8197H37.1397C37.3197 30.8197 37.3932 30.7462 37.3932 30.5662L37.3856 27.0316Z" fill="#D50C2D"/>
<path d="M30.4736 29.59H26.8605L30.4812 26.4079C30.5539 26.3523 30.614 26.282 30.6577 26.2016C30.7014 26.1212 30.7277 26.0325 30.7348 25.9413V25.4342C30.7348 25.2567 30.6587 25.1807 30.4812 25.1807H25.2403C25.0628 25.1807 24.9867 25.2542 24.9867 25.4342V26.1366C24.9867 26.3141 25.0602 26.3901 25.2403 26.3901H28.5999L25.2301 29.552C25.158 29.6081 25.0983 29.6785 25.0547 29.7588C25.0111 29.8391 24.9845 29.9275 24.9766 30.0185V30.5687C24.9766 30.7462 25.0501 30.8223 25.2301 30.8223H30.466C30.6435 30.8223 30.7196 30.7487 30.7196 30.5687V29.841C30.7247 29.6635 30.6511 29.59 30.4736 29.59Z" fill="#D50C2D"/>
<path d="M23.8112 25.1807H18.5778C18.3977 25.1807 18.3242 25.2517 18.3242 25.4342V26.134C18.3242 26.3115 18.3952 26.3876 18.5778 26.3876H20.5504V30.5662C20.5504 30.7437 20.624 30.8197 20.804 30.8197H21.6407C21.8182 30.8197 21.8943 30.7462 21.8943 30.5662V26.3851H23.8137C23.9912 26.3851 24.0672 26.3115 24.0672 26.1315V25.4342C24.0622 25.2618 23.9886 25.1807 23.8112 25.1807Z" fill="#D50C2D"/>
<path d="M17.1475 29.623H12.9638V28.5656H16.3082C16.4857 28.5656 16.5618 28.4921 16.5618 28.3121V27.6959C16.5618 27.5184 16.4908 27.4424 16.3082 27.4424H12.9638V26.3876H17.1475C17.325 26.3876 17.4011 26.3141 17.4011 26.134V25.4342C17.4011 25.2567 17.3275 25.1807 17.1475 25.1807H11.9293C11.7518 25.1807 11.6758 25.2542 11.6758 25.4342V30.5662C11.6758 30.7437 11.7493 30.8197 11.9293 30.8197H17.1475C17.325 30.8197 17.4011 30.7462 17.4011 30.5662V29.874C17.3985 29.6965 17.325 29.623 17.1475 29.623Z" fill="#D50C2D"/>
<path d="M10.4844 25.1807H9.69584C9.51835 25.1807 9.44229 25.2542 9.44229 25.4342V27.4297H6.30074V25.4342C6.30074 25.2567 6.22721 25.1807 6.04718 25.1807H5.25356C5.07353 25.1807 5 25.2542 5 25.4342V30.5687C5 30.7487 5.07353 30.8223 5.25356 30.8223H6.04718C6.22467 30.8223 6.30074 30.7513 6.30074 30.5687V28.5403H9.44482V30.5687C9.44482 30.7462 9.51836 30.8223 9.69838 30.8223H10.4869C10.6644 30.8223 10.7405 30.7487 10.7405 30.5687V25.4342C10.7354 25.2618 10.6619 25.1807 10.4844 25.1807Z" fill="#D50C2D"/>
</g>
<defs>
<clipPath id="clip0_27_349">
<rect width="46" height="5.63907" fill="white" transform="translate(5 25.1807)"/>
</clipPath>
</defs>
</svg>
