<svg width="56" height="56" viewBox="0 0 56 56" fill="none" xmlns="http://www.w3.org/2000/svg">
<path fill-rule="evenodd" clip-rule="evenodd" d="M12.9092 28.8867C15.9592 31.848 23.3479 35.5867 25.0598 36.4328C25.0794 36.4426 25.168 36.4721 25.227 36.4033C25.227 36.4033 25.2959 36.3442 25.2565 36.2557C20.5537 26.0335 14.1292 18.2808 14.1292 18.2808C14.1292 18.2808 10.6267 21.5865 10.8825 24.9021C11.0104 27.401 12.9092 28.8867 12.9092 28.8867Z" fill="url(#paint0_radial_23_35)"/>
<path fill-rule="evenodd" clip-rule="evenodd" d="M24.0727 38.9422C24.0432 38.834 23.9153 38.834 23.9153 38.834L11.6172 39.257C12.9552 41.6281 15.1984 43.4679 17.54 42.8973C19.1535 42.4939 22.8134 39.9556 24.0137 39.0996C24.1121 39.0111 24.0727 38.9422 24.0727 38.9422Z" fill="url(#paint1_radial_23_35)"/>
<path fill-rule="evenodd" clip-rule="evenodd" d="M12.5628 37.417C13.7434 37.8991 14.9142 37.9286 14.9142 37.9286C15.1012 37.9581 22.2242 37.9286 24.1329 37.9187C24.2116 37.9187 24.2608 37.84 24.2608 37.84C24.3198 37.7416 24.2116 37.6531 24.2116 37.6531C18.8201 34.0227 8.35195 28.4541 8.35195 28.4541C7.39761 31.386 8.68646 33.7472 8.68646 33.7472C10.0147 36.561 12.5628 37.417 12.5628 37.417Z" fill="url(#paint2_radial_23_35)"/>
<path fill-rule="evenodd" clip-rule="evenodd" d="M44.371 39.257L32.0631 38.834C32.0631 38.834 31.9549 38.8438 31.9253 38.9324C31.9253 38.9324 31.8958 39.0406 31.9745 39.0996C33.1552 39.9359 36.7167 42.425 38.4384 42.9071C38.4384 42.9071 41.6163 43.9795 44.371 39.257Z" fill="url(#paint3_radial_23_35)"/>
<path fill-rule="evenodd" clip-rule="evenodd" d="M30.7654 36.2065C30.7654 36.2065 30.7063 36.3246 30.7949 36.4033C30.7949 36.4033 30.8834 36.4623 30.9621 36.4131C32.7232 35.5375 40.0529 31.8284 43.093 28.8867C43.093 28.8867 45.0115 27.3518 45.1197 24.8824C45.3362 21.4488 41.873 18.2808 41.873 18.2808C41.873 18.2808 35.4682 26.004 30.7654 36.2065Z" fill="url(#paint4_radial_23_35)"/>
<path fill-rule="evenodd" clip-rule="evenodd" d="M29.0503 35.2916C29.0601 35.3998 29.1487 35.4293 29.1487 35.4293C29.2667 35.4785 29.3258 35.3605 29.3258 35.3605C30.5064 33.6584 35.8192 25.8171 36.9014 21.0356C36.9014 21.0356 37.4917 18.7236 36.9211 17.1494C36.9211 17.1494 36.1143 14.1585 32.8578 13.3715C32.8578 13.3715 31.9231 13.1353 30.9196 12.9976C30.9196 12.9878 27.2794 17.661 29.0503 35.2916Z" fill="url(#paint5_radial_23_35)"/>
<path fill-rule="evenodd" clip-rule="evenodd" d="M26.671 35.3802C26.7497 35.4589 26.8186 35.4294 26.8186 35.4294C26.9465 35.39 26.9367 35.272 26.9367 35.272C28.7076 17.6512 25.0772 12.9878 25.0772 12.9878C24.5459 13.037 23.0997 13.3617 23.0997 13.3617C19.8431 14.1979 19.0757 17.1396 19.0757 17.1396C18.4854 18.9893 19.0954 21.0258 19.0954 21.0258C20.1776 25.827 25.5199 33.7175 26.671 35.3802Z" fill="url(#paint6_radial_23_35)"/>
<path fill-rule="evenodd" clip-rule="evenodd" d="M47.6466 28.4346C47.6466 28.4346 37.1982 34.0228 31.7968 37.6532C31.7968 37.6532 31.6985 37.7123 31.7378 37.8303C31.7378 37.8303 31.787 37.9189 31.8657 37.9189C33.8039 37.9189 41.1237 37.9287 41.3107 37.8992C41.3107 37.8992 42.2552 37.8598 43.4259 37.4171C43.4259 37.4171 46.0331 36.5907 47.381 33.649C47.3712 33.6391 48.5813 31.2385 47.6466 28.4346Z" fill="url(#paint7_radial_23_35)"/>
<defs>
<radialGradient id="paint0_radial_23_35" cx="0" cy="0" r="1" gradientUnits="userSpaceOnUse" gradientTransform="translate(33.2018 15.8815) scale(28.8268 28.8268)">
<stop stop-color="#F7BFA4"/>
<stop offset="0.0113075" stop-color="#F7BB9F"/>
<stop offset="0.427" stop-color="#E60012"/>
<stop offset="0.6628" stop-color="#E50012"/>
<stop offset="0.7574" stop-color="#E10011"/>
<stop offset="0.8268" stop-color="#DA0010"/>
<stop offset="0.8838" stop-color="#CF000E"/>
<stop offset="0.9331" stop-color="#C00009"/>
<stop offset="0.9765" stop-color="#AE0003"/>
<stop offset="1" stop-color="#A00000"/>
</radialGradient>
<radialGradient id="paint1_radial_23_35" cx="0" cy="0" r="1" gradientUnits="userSpaceOnUse" gradientTransform="translate(17.6952 16.6504) scale(28.8891 28.8891)">
<stop stop-color="#F7BFA4"/>
<stop offset="0.0113075" stop-color="#F7BB9F"/>
<stop offset="0.427" stop-color="#E60012"/>
<stop offset="0.6628" stop-color="#E50012"/>
<stop offset="0.7574" stop-color="#E10011"/>
<stop offset="0.8268" stop-color="#DA0010"/>
<stop offset="0.8838" stop-color="#CF000E"/>
<stop offset="0.9331" stop-color="#C00009"/>
<stop offset="0.9765" stop-color="#AE0003"/>
<stop offset="1" stop-color="#A00000"/>
</radialGradient>
<radialGradient id="paint2_radial_23_35" cx="0" cy="0" r="1" gradientUnits="userSpaceOnUse" gradientTransform="translate(23.4051 16.6466) scale(28.8823 28.8823)">
<stop stop-color="#F7BFA4"/>
<stop offset="0.0113075" stop-color="#F7BB9F"/>
<stop offset="0.427" stop-color="#E60012"/>
<stop offset="0.6628" stop-color="#E50012"/>
<stop offset="0.7574" stop-color="#E10011"/>
<stop offset="0.8268" stop-color="#DA0010"/>
<stop offset="0.8838" stop-color="#CF000E"/>
<stop offset="0.9331" stop-color="#C00009"/>
<stop offset="0.9765" stop-color="#AE0003"/>
<stop offset="1" stop-color="#A00000"/>
</radialGradient>
<radialGradient id="paint3_radial_23_35" cx="0" cy="0" r="1" gradientUnits="userSpaceOnUse" gradientTransform="translate(16.5441 16.6364) scale(28.9185 28.9185)">
<stop stop-color="#F7BFA4"/>
<stop offset="0.0113075" stop-color="#F7BB9F"/>
<stop offset="0.427" stop-color="#E60012"/>
<stop offset="0.6628" stop-color="#E50012"/>
<stop offset="0.7574" stop-color="#E10011"/>
<stop offset="0.8268" stop-color="#DA0010"/>
<stop offset="0.8838" stop-color="#CF000E"/>
<stop offset="0.9331" stop-color="#C00009"/>
<stop offset="0.9765" stop-color="#AE0003"/>
<stop offset="1" stop-color="#A00000"/>
</radialGradient>
<radialGradient id="paint4_radial_23_35" cx="0" cy="0" r="1" gradientUnits="userSpaceOnUse" gradientTransform="translate(33.2323 15.8603) scale(28.8695 28.8695)">
<stop stop-color="#F7BFA4"/>
<stop offset="0.0113075" stop-color="#F7BB9F"/>
<stop offset="0.427" stop-color="#E60012"/>
<stop offset="0.6628" stop-color="#E50012"/>
<stop offset="0.7574" stop-color="#E10011"/>
<stop offset="0.8268" stop-color="#DA0010"/>
<stop offset="0.8838" stop-color="#CF000E"/>
<stop offset="0.9331" stop-color="#C00009"/>
<stop offset="0.9765" stop-color="#AE0003"/>
<stop offset="1" stop-color="#A00000"/>
</radialGradient>
<radialGradient id="paint5_radial_23_35" cx="0" cy="0" r="1" gradientUnits="userSpaceOnUse" gradientTransform="translate(33.2308 14.4741) scale(28.8864 28.8864)">
<stop stop-color="#F7BFA4"/>
<stop offset="0.0113075" stop-color="#F7BB9F"/>
<stop offset="0.427" stop-color="#E60012"/>
<stop offset="0.6628" stop-color="#E50012"/>
<stop offset="0.7574" stop-color="#E10011"/>
<stop offset="0.8268" stop-color="#DA0010"/>
<stop offset="0.8838" stop-color="#CF000E"/>
<stop offset="0.9331" stop-color="#C00009"/>
<stop offset="0.9765" stop-color="#AE0003"/>
<stop offset="1" stop-color="#A00000"/>
</radialGradient>
<radialGradient id="paint6_radial_23_35" cx="0" cy="0" r="1" gradientUnits="userSpaceOnUse" gradientTransform="translate(33.2084 14.5001) scale(28.8829 28.883)">
<stop stop-color="#F7BFA4"/>
<stop offset="0.0113075" stop-color="#F7BB9F"/>
<stop offset="0.427" stop-color="#E60012"/>
<stop offset="0.6628" stop-color="#E50012"/>
<stop offset="0.7574" stop-color="#E10011"/>
<stop offset="0.8268" stop-color="#DA0010"/>
<stop offset="0.8838" stop-color="#CF000E"/>
<stop offset="0.9331" stop-color="#C00009"/>
<stop offset="0.9765" stop-color="#AE0003"/>
<stop offset="1" stop-color="#A00000"/>
</radialGradient>
<radialGradient id="paint7_radial_23_35" cx="0" cy="0" r="1" gradientUnits="userSpaceOnUse" gradientTransform="translate(22.7444 16.654) scale(28.8858 28.8858)">
<stop stop-color="#F7BFA4"/>
<stop offset="0.0113075" stop-color="#F7BB9F"/>
<stop offset="0.427" stop-color="#E60012"/>
<stop offset="0.6628" stop-color="#E50012"/>
<stop offset="0.7574" stop-color="#E10011"/>
<stop offset="0.8268" stop-color="#DA0010"/>
<stop offset="0.8838" stop-color="#CF000E"/>
<stop offset="0.9331" stop-color="#C00009"/>
<stop offset="0.9765" stop-color="#AE0003"/>
<stop offset="1" stop-color="#A00000"/>
</radialGradient>
</defs>
</svg>
