<svg width="56" height="56" viewBox="0 0 56 56" fill="none" xmlns="http://www.w3.org/2000/svg">
<path d="M17.7344 44.3916C17.7344 45.4503 18.2456 46.0175 19.1836 46.0176C20.1123 46.0176 20.623 45.4694 20.623 44.4385V40.8066H21.9141V44.3828C21.914 46.2031 20.9111 47.2432 19.165 47.2432C17.4376 47.2431 16.4443 46.2216 16.4443 44.4385V40.8066H17.7344V44.3916ZM10.4629 43.3701H13.3701V40.8066H14.6514V47.1504H13.3701V44.5781H10.4629V47.1504H9.17188V40.8066H10.4629V43.3701ZM26.4834 40.8066L26.502 40.8438L29.2695 47.1504H27.9229L27.3564 45.832H24.4502L24.4131 45.9248L23.874 47.1504H22.5645L25.3604 40.8066H26.4834ZM31.5732 45.1719L33.0127 40.8066H34.0625L35.502 45.1719L36.9043 40.8066H38.2412L36.04 47.1504H34.9629L33.5146 42.9893L32.0752 47.1504H31.0068L28.7959 40.8066H30.1709L31.5732 45.1719ZM43.9551 41.9678H40.5557V43.2686H42.8955V44.4199H40.5557V45.9893H44.0752V47.1504H39.2832V40.8066H43.9551V41.9678ZM46.8799 47.1416H45.6084V40.8066H46.8799V47.1416ZM24.9883 44.5312L24.9238 44.6797H26.874L26.8184 44.5312L25.8984 42.4043L24.9883 44.5312Z" fill="white"/>
<path fill-rule="evenodd" clip-rule="evenodd" d="M13.7442 23.7736C16.6233 26.5691 23.5982 30.0984 25.2142 30.8971C25.2328 30.9064 25.3164 30.9342 25.3721 30.8692C25.3721 30.8692 25.4371 30.8135 25.4 30.7299C20.9605 21.0802 14.8958 13.7617 14.8958 13.7617C14.8958 13.7617 11.5895 16.8823 11.831 20.0122C11.9517 22.3712 13.7442 23.7736 13.7442 23.7736Z" fill="url(#paint0_radial_23_35)"/>
<path fill-rule="evenodd" clip-rule="evenodd" d="M24.2833 33.2657C24.2555 33.1636 24.1347 33.1636 24.1347 33.1636L12.5254 33.5629C13.7885 35.8012 15.906 37.538 18.1164 36.9993C19.6396 36.6185 23.0945 34.2223 24.2276 33.4143C24.3205 33.3307 24.2833 33.2657 24.2833 33.2657Z" fill="url(#paint1_radial_23_35)"/>
<path fill-rule="evenodd" clip-rule="evenodd" d="M13.4186 31.8261C14.5331 32.2812 15.6383 32.3091 15.6383 32.3091C15.8148 32.3369 22.5389 32.3091 24.3407 32.2998C24.415 32.2998 24.4614 32.2255 24.4614 32.2255C24.5171 32.1326 24.415 32.049 24.415 32.049C19.3254 28.6219 9.44356 23.3652 9.44356 23.3652C8.54268 26.1329 9.75934 28.3619 9.75934 28.3619C11.0131 31.0181 13.4186 31.8261 13.4186 31.8261Z" fill="url(#paint2_radial_23_35)"/>
<path fill-rule="evenodd" clip-rule="evenodd" d="M43.4452 33.5629L31.8265 33.1636C31.8265 33.1636 31.7244 33.1729 31.6965 33.2564C31.6965 33.2564 31.6687 33.3586 31.743 33.4143C32.8575 34.2038 36.2195 36.5535 37.8448 37.0086C37.8448 37.0086 40.8447 38.0209 43.4452 33.5629Z" fill="url(#paint3_radial_23_35)"/>
<path fill-rule="evenodd" clip-rule="evenodd" d="M30.6002 30.6835C30.6002 30.6835 30.5445 30.7949 30.6281 30.8692C30.6281 30.8692 30.7117 30.9249 30.786 30.8785C32.4484 30.0519 39.3676 26.5506 42.2374 23.7736C42.2374 23.7736 44.0485 22.3248 44.1506 19.9936C44.355 16.7523 41.0858 13.7617 41.0858 13.7617C41.0858 13.7617 35.0396 21.0524 30.6002 30.6835Z" fill="url(#paint4_radial_23_35)"/>
<path fill-rule="evenodd" clip-rule="evenodd" d="M28.9821 29.8198C28.9913 29.922 29.0749 29.9499 29.0749 29.9499C29.1864 29.9963 29.2421 29.8848 29.2421 29.8848C30.3566 28.2781 35.3718 20.876 36.3935 16.3623C36.3935 16.3623 36.9507 14.1797 36.412 12.6938C36.412 12.6938 35.6505 9.87036 32.5763 9.12737C32.5763 9.12737 31.694 8.90447 30.7467 8.77443C30.7467 8.76516 27.3103 13.1767 28.9821 29.8198Z" fill="url(#paint5_radial_23_35)"/>
<path fill-rule="evenodd" clip-rule="evenodd" d="M26.7351 29.9034C26.8094 29.9777 26.8744 29.9498 26.8744 29.9498C26.9952 29.9127 26.9859 29.8012 26.9859 29.8012C28.6576 13.1674 25.2306 8.76514 25.2306 8.76514C24.729 8.81157 23.3638 9.11806 23.3638 9.11806C20.2896 9.90749 19.5652 12.6844 19.5652 12.6844C19.008 14.4305 19.5838 16.353 19.5838 16.353C20.6054 20.8853 25.6485 28.3338 26.7351 29.9034Z" fill="url(#paint6_radial_23_35)"/>
<path fill-rule="evenodd" clip-rule="evenodd" d="M46.5364 23.3467C46.5364 23.3467 36.6731 28.622 31.5743 32.049C31.5743 32.049 31.4814 32.1048 31.5185 32.2162C31.5185 32.2162 31.565 32.2998 31.6393 32.2998C33.4689 32.2998 40.3788 32.3091 40.5552 32.2812C40.5552 32.2812 41.4468 32.2441 42.552 31.8261C42.552 31.8261 45.0132 31.046 46.2856 28.269C46.2763 28.2597 47.4187 25.9936 46.5364 23.3467Z" fill="url(#paint7_radial_23_35)"/>
<defs>
<radialGradient id="paint0_radial_23_35" cx="0" cy="0" r="1" gradientUnits="userSpaceOnUse" gradientTransform="translate(32.9002 11.4969) scale(27.2123 27.2123)">
<stop stop-color="#F7BFA4"/>
<stop offset="0.0113075" stop-color="#F7BB9F"/>
<stop offset="0.427" stop-color="#E60012"/>
<stop offset="0.6628" stop-color="#E50012"/>
<stop offset="0.7574" stop-color="#E10011"/>
<stop offset="0.8268" stop-color="#DA0010"/>
<stop offset="0.8838" stop-color="#CF000E"/>
<stop offset="0.9331" stop-color="#C00009"/>
<stop offset="0.9765" stop-color="#AE0003"/>
<stop offset="1" stop-color="#A00000"/>
</radialGradient>
<radialGradient id="paint1_radial_23_35" cx="0" cy="0" r="1" gradientUnits="userSpaceOnUse" gradientTransform="translate(18.2629 12.2224) scale(27.2711 27.2711)">
<stop stop-color="#F7BFA4"/>
<stop offset="0.0113075" stop-color="#F7BB9F"/>
<stop offset="0.427" stop-color="#E60012"/>
<stop offset="0.6628" stop-color="#E50012"/>
<stop offset="0.7574" stop-color="#E10011"/>
<stop offset="0.8268" stop-color="#DA0010"/>
<stop offset="0.8838" stop-color="#CF000E"/>
<stop offset="0.9331" stop-color="#C00009"/>
<stop offset="0.9765" stop-color="#AE0003"/>
<stop offset="1" stop-color="#A00000"/>
</radialGradient>
<radialGradient id="paint2_radial_23_35" cx="0" cy="0" r="1" gradientUnits="userSpaceOnUse" gradientTransform="translate(23.6536 12.219) scale(27.2647 27.2647)">
<stop stop-color="#F7BFA4"/>
<stop offset="0.0113075" stop-color="#F7BB9F"/>
<stop offset="0.427" stop-color="#E60012"/>
<stop offset="0.6628" stop-color="#E50012"/>
<stop offset="0.7574" stop-color="#E10011"/>
<stop offset="0.8268" stop-color="#DA0010"/>
<stop offset="0.8838" stop-color="#CF000E"/>
<stop offset="0.9331" stop-color="#C00009"/>
<stop offset="0.9765" stop-color="#AE0003"/>
<stop offset="1" stop-color="#A00000"/>
</radialGradient>
<radialGradient id="paint3_radial_23_35" cx="0" cy="0" r="1" gradientUnits="userSpaceOnUse" gradientTransform="translate(17.1768 12.2092) scale(27.2989 27.2988)">
<stop stop-color="#F7BFA4"/>
<stop offset="0.0113075" stop-color="#F7BB9F"/>
<stop offset="0.427" stop-color="#E60012"/>
<stop offset="0.6628" stop-color="#E50012"/>
<stop offset="0.7574" stop-color="#E10011"/>
<stop offset="0.8268" stop-color="#DA0010"/>
<stop offset="0.8838" stop-color="#CF000E"/>
<stop offset="0.9331" stop-color="#C00009"/>
<stop offset="0.9765" stop-color="#AE0003"/>
<stop offset="1" stop-color="#A00000"/>
</radialGradient>
<radialGradient id="paint4_radial_23_35" cx="0" cy="0" r="1" gradientUnits="userSpaceOnUse" gradientTransform="translate(32.929 11.4768) scale(27.2526 27.2526)">
<stop stop-color="#F7BFA4"/>
<stop offset="0.0113075" stop-color="#F7BB9F"/>
<stop offset="0.427" stop-color="#E60012"/>
<stop offset="0.6628" stop-color="#E50012"/>
<stop offset="0.7574" stop-color="#E10011"/>
<stop offset="0.8268" stop-color="#DA0010"/>
<stop offset="0.8838" stop-color="#CF000E"/>
<stop offset="0.9331" stop-color="#C00009"/>
<stop offset="0.9765" stop-color="#AE0003"/>
<stop offset="1" stop-color="#A00000"/>
</radialGradient>
<radialGradient id="paint5_radial_23_35" cx="0" cy="0" r="1" gradientUnits="userSpaceOnUse" gradientTransform="translate(32.9284 10.1682) scale(27.2685)">
<stop stop-color="#F7BFA4"/>
<stop offset="0.0113075" stop-color="#F7BB9F"/>
<stop offset="0.427" stop-color="#E60012"/>
<stop offset="0.6628" stop-color="#E50012"/>
<stop offset="0.7574" stop-color="#E10011"/>
<stop offset="0.8268" stop-color="#DA0010"/>
<stop offset="0.8838" stop-color="#CF000E"/>
<stop offset="0.9331" stop-color="#C00009"/>
<stop offset="0.9765" stop-color="#AE0003"/>
<stop offset="1" stop-color="#A00000"/>
</radialGradient>
<radialGradient id="paint6_radial_23_35" cx="0" cy="0" r="1" gradientUnits="userSpaceOnUse" gradientTransform="translate(32.9064 10.1927) scale(27.2653 27.2653)">
<stop stop-color="#F7BFA4"/>
<stop offset="0.0113075" stop-color="#F7BB9F"/>
<stop offset="0.427" stop-color="#E60012"/>
<stop offset="0.6628" stop-color="#E50012"/>
<stop offset="0.7574" stop-color="#E10011"/>
<stop offset="0.8268" stop-color="#DA0010"/>
<stop offset="0.8838" stop-color="#CF000E"/>
<stop offset="0.9331" stop-color="#C00009"/>
<stop offset="0.9765" stop-color="#AE0003"/>
<stop offset="1" stop-color="#A00000"/>
</radialGradient>
<radialGradient id="paint7_radial_23_35" cx="0" cy="0" r="1" gradientUnits="userSpaceOnUse" gradientTransform="translate(23.0288 12.2259) scale(27.268 27.268)">
<stop stop-color="#F7BFA4"/>
<stop offset="0.0113075" stop-color="#F7BB9F"/>
<stop offset="0.427" stop-color="#E60012"/>
<stop offset="0.6628" stop-color="#E50012"/>
<stop offset="0.7574" stop-color="#E10011"/>
<stop offset="0.8268" stop-color="#DA0010"/>
<stop offset="0.8838" stop-color="#CF000E"/>
<stop offset="0.9331" stop-color="#C00009"/>
<stop offset="0.9765" stop-color="#AE0003"/>
<stop offset="1" stop-color="#A00000"/>
</radialGradient>
</defs>
</svg>
