<svg width="56" height="56" viewBox="0 0 56 56" fill="none" xmlns="http://www.w3.org/2000/svg">
<path d="M41.8253 26.4601L36.4377 47.5248C36.4235 47.5827 36.4235 47.6432 36.4377 47.7011C36.4588 47.7882 36.5092 47.8655 36.5803 47.9201C36.6514 47.9747 36.739 48.0033 36.8287 48.0011H47.5982C47.6577 48.0025 47.7166 47.9904 47.7707 47.9656C47.8247 47.9409 47.8725 47.9042 47.9103 47.8583C47.9481 47.8125 47.975 47.7586 47.989 47.7008C48.003 47.643 48.0036 47.5828 47.991 47.5248L42.578 26.4601C42.5592 26.3999 42.5264 26.345 42.4821 26.3C42.4379 26.255 42.3835 26.2213 42.3236 26.2015C42.2636 26.1818 42.1998 26.1766 42.1375 26.1865C42.0752 26.1964 42.0161 26.221 41.9652 26.2583C41.8973 26.3076 41.8474 26.3779 41.8234 26.4583M12.1821 31.2331L8.00911 47.5248C7.99633 47.5829 7.997 47.6432 8.01108 47.7011C8.02515 47.7589 8.05226 47.8128 8.09032 47.8586C8.12839 47.9043 8.1764 47.9408 8.23071 47.9652C8.28502 47.9896 8.34419 48.0013 8.4037 47.9994H16.715C16.7747 48.0008 16.834 47.9888 16.8884 47.9643C16.9429 47.9397 16.9911 47.9032 17.0295 47.8575C17.0668 47.812 17.0929 47.7585 17.1059 47.7011C17.1208 47.6433 17.1214 47.5828 17.1077 47.5248L12.9312 31.2331C12.9068 31.1533 12.857 31.0837 12.7894 31.0349C12.7222 30.9861 12.6415 30.9594 12.5585 30.9586C12.4735 30.9583 12.3907 30.985 12.322 31.0349C12.2551 31.084 12.2059 31.1536 12.1821 31.2331Z" fill="#00E5E5"/>
<path d="M19.538 17.7455L11.9376 47.525C11.9246 47.581 11.9244 47.6391 11.937 47.6952C11.9496 47.7512 11.9747 47.8037 12.0104 47.8487C12.0458 47.8948 12.0912 47.9322 12.1432 47.9584C12.1951 47.9845 12.2522 47.9986 12.3104 47.9996H27.5165C27.5757 48.0012 27.6345 47.9893 27.6885 47.9649C27.7424 47.9404 27.7902 47.9041 27.8281 47.8587C27.8661 47.8132 27.8932 47.7597 27.9076 47.7023C27.922 47.6448 27.9232 47.5849 27.9111 47.5269L20.2889 17.7419C20.2646 17.6621 20.2148 17.5925 20.1471 17.5437C20.0794 17.4945 19.9981 17.4678 19.9144 17.4673C19.8301 17.4674 19.748 17.4941 19.6798 17.5437C19.6118 17.5929 19.562 17.6632 19.538 17.7437" fill="#006EFF"/>
<path d="M32.6511 8.27356C32.6268 8.19378 32.577 8.12418 32.5093 8.07539C32.4411 8.02586 32.359 7.99913 32.2747 7.99902C32.1911 7.99952 32.1097 8.02622 32.042 8.07539C31.9744 8.12419 31.9246 8.19379 31.9002 8.27356L21.5106 47.5245C21.4982 47.5823 21.4991 47.6423 21.5132 47.6997C21.5274 47.7572 21.5544 47.8107 21.5922 47.8563C21.63 47.9018 21.6777 47.9381 21.7316 47.9625C21.7855 47.987 21.8442 47.9988 21.9034 47.9972H42.668C42.7274 47.9984 42.7863 47.9863 42.8404 47.9617C42.8945 47.9372 42.9425 47.9009 42.9807 47.8554C43.0185 47.8098 43.0459 47.7564 43.0607 47.699C43.0739 47.6416 43.0739 47.5819 43.0607 47.5245L32.6511 8.27356Z" fill="#006EFF"/>
<path d="M25.0184 22.0742L18.4272 47.5226C18.4127 47.5806 18.4123 47.6412 18.4259 47.6993C18.4395 47.7575 18.4667 47.8116 18.5054 47.8572C18.5434 47.9035 18.5915 47.9406 18.646 47.9655C18.7006 47.9904 18.7601 48.0025 18.82 48.0008H31.9715C32.0318 48.002 32.0915 47.9895 32.1463 47.9643C32.2011 47.9392 32.2495 47.9019 32.2879 47.8554C32.3249 47.8093 32.3511 47.7555 32.3647 47.6979C32.3782 47.6403 32.3787 47.5804 32.3661 47.5227L25.7694 22.0724C25.7447 21.9933 25.6949 21.9243 25.6276 21.876C25.5596 21.8258 25.4775 21.7985 25.393 21.7979C25.3091 21.7989 25.2277 21.8262 25.1603 21.876C25.0929 21.9243 25.0431 21.9933 25.0184 22.0724" fill="#00E5E5"/>
</svg>
