<svg width="56" height="56" viewBox="0 0 56 56" fill="none" xmlns="http://www.w3.org/2000/svg">
<path d="M48.1443 21.107C46.9351 19.0621 45.1619 17.3524 43.0167 16.1629C40.9706 15.0283 38.6917 14.4162 36.4264 14.3928C34.3245 14.3703 32.7455 14.8805 32.2265 15.0479C27.732 16.4976 25.3574 20.2243 24.3434 21.8157C24.2804 21.9146 24.2233 22.0043 24.1717 22.0836C20.3349 27.9816 13.8568 30.9511 10.3766 32.5463C10.0078 32.7154 9.65902 32.8753 9.34804 33.0226C9.15815 32.3509 9.06208 31.6563 9.06256 30.9583C9.06256 26.7747 12.4661 23.3711 16.6497 23.3711C17.42 23.3711 18.1792 23.4858 18.9063 23.7119C19.7316 23.9686 20.502 24.3628 21.1961 24.8835L23.0338 22.4337C22.059 21.7024 20.9762 21.1486 19.8158 20.7877C18.7939 20.4698 17.7286 20.3087 16.6497 20.3087C13.8051 20.3087 11.1307 21.4164 9.11921 23.4279C7.1078 25.4393 6 28.1137 6 30.9583C6 33.803 7.10775 36.4773 9.11921 38.4887C11.1307 40.5001 13.805 41.6079 16.6496 41.6079C18.0529 41.6079 19.4478 41.2024 20.3709 40.934C22.4658 40.3249 24.4472 39.3627 26.2601 38.0741L24.4859 35.578C22.953 36.6675 21.2809 37.4801 19.516 37.9933C18.7597 38.2132 17.6168 38.5455 16.6497 38.5455C14.2775 38.5455 12.1565 37.4509 10.7641 35.7406C11.0328 35.6144 11.3351 35.4758 11.6527 35.3303C15.4149 33.6058 22.4179 30.3957 26.7388 23.7536C26.8017 23.6565 26.8641 23.5592 26.9261 23.4615C27.8336 22.0373 29.722 19.0737 33.1666 17.9627C33.5684 17.8331 34.7909 17.4382 36.3949 17.4553C39.7692 17.4901 43.0516 19.2067 45.0017 21.8952C44.4073 21.8756 43.9063 21.8556 43.471 21.8383C41.899 21.7756 41.11 21.7441 40.0393 21.9176C38.7087 22.1332 37.4243 22.578 36.2217 23.2396C34.6436 24.1077 33.6541 25.1395 33.1224 25.6938C30.7858 28.1304 28.5758 30.6509 27.1333 32.3362L29.46 34.3276C30.8768 32.6722 33.0457 30.1984 35.3327 27.8135C35.8094 27.3164 36.5298 26.5653 37.6977 25.9228C38.0313 25.7393 39.0464 25.1809 40.5291 24.9406C41.2958 24.8164 41.8549 24.8387 43.349 24.8983C44.0695 24.9271 44.9663 24.9628 46.1712 24.9928C46.2827 24.9956 46.3946 24.9982 46.5065 25.0007C46.7519 25.8358 46.9374 26.835 46.9374 27.9493C46.9374 33.7356 42.2151 38.4431 36.4107 38.4431C34.3651 38.4431 32.3824 37.8581 30.677 36.7516C30.5262 36.6537 30.3779 36.552 30.2323 36.4466C29.3289 35.7926 28.4498 34.8769 27.6191 33.7252C27.0854 32.9852 26.8256 32.5108 26.5248 31.9615C26.1686 31.3107 25.7647 30.573 24.8909 29.396C24.6102 29.018 24.3204 28.6469 24.0215 28.2831L21.6556 30.2276C21.9225 30.5525 22.1814 30.8839 22.432 31.2215C23.18 32.229 23.5 32.8135 23.8387 33.4322C24.1591 34.0174 24.4905 34.6225 25.1353 35.5166C26.1573 36.9338 27.268 38.0813 28.4365 38.9273C28.6243 39.0632 28.8156 39.1944 29.01 39.3207C31.2131 40.7501 33.7722 41.5056 36.4108 41.5056C40.0398 41.5056 43.4518 40.096 46.0183 37.5366C48.5859 34.9759 50 31.5712 50 27.9494C49.9999 24.6054 48.7022 22.0503 48.1443 21.107Z" fill="#E1261B"/>
</svg>
