<svg width="56" height="56" viewBox="0 0 56 56" fill="none" xmlns="http://www.w3.org/2000/svg">
<path d="M15.5302 26.6312C18.0406 30.3016 23.2345 29.9758 23.2345 29.9758C21.9359 28.7161 21.092 27.5651 21.0054 24.2857C20.9189 21.0061 19.0577 20.1374 19.0577 20.1374C22.3904 18.0307 21.2001 15.7503 21.092 13.2093C21.027 11.6239 21.9576 10.4511 22.6934 9.77783C18.4584 10.4145 14.6317 12.667 12.011 16.0658C9.39034 19.4646 8.17799 23.7473 8.6267 28.0211C8.92967 27.1741 13.2146 23.2432 15.5302 26.6312Z" fill="url(#paint0_linear_28_419)"/>
<path d="M46.2822 20.0946C46.1702 19.7377 46.0328 19.3893 45.871 19.0522V19.0305C45.1157 17.4884 43.8635 16.2476 42.3173 15.5094C40.7713 14.7712 39.022 14.5788 37.3533 14.9636C35.6846 15.3483 34.1943 16.2875 33.1242 17.6289C32.0541 18.9702 31.467 20.635 31.458 22.3534C31.4581 22.8938 31.5162 23.4326 31.6312 23.9605C31.6317 23.9677 31.6317 23.975 31.6312 23.9822C31.6745 24.1994 31.7394 24.4165 31.8043 24.6338C32.1905 26.1636 32.2658 27.756 32.0253 29.3157C31.7848 30.8755 31.2338 32.3706 30.405 33.7118C29.5761 35.0532 28.4865 36.2131 27.2011 37.1225C25.9158 38.032 24.461 38.6722 22.9238 39.0049C21.3864 39.3377 19.7981 39.3563 18.2535 39.0595C16.7089 38.7627 15.2397 38.1566 13.9336 37.2775C12.6275 36.3984 11.5113 35.2642 10.6515 33.9426C9.79181 32.6211 9.20622 31.1392 8.92969 29.5855C9.32073 32.2787 10.271 34.8595 11.7189 37.1607C13.1669 39.462 15.0802 41.4324 17.3351 42.9446C19.59 44.4566 22.1362 45.4767 24.8089 45.9386C27.4814 46.4005 30.221 46.294 32.85 45.6259C35.479 44.9579 37.9389 43.7433 40.0705 42.0607C42.2021 40.3781 43.9578 38.2651 45.2241 35.8583C46.4903 33.4515 47.2387 30.8047 47.421 28.0892C47.6033 25.3737 47.2153 22.6501 46.2822 20.0946Z" fill="url(#paint1_linear_28_419)"/>
<path fill-rule="evenodd" clip-rule="evenodd" d="M43.0579 25.3287C43.0579 34.7925 35.4133 42.4644 25.9831 42.4644C20.9773 42.4644 16.4747 40.3027 13.3516 36.8588C13.5412 37.0041 13.7356 37.1437 13.9343 37.2775C15.2404 38.1566 16.7096 38.7627 18.2541 39.0595C19.7988 39.3563 21.3872 39.3377 22.9244 39.0049C24.4618 38.6722 25.9165 38.032 27.2019 37.1225C28.4872 36.2131 29.5769 35.0532 30.4056 33.7118C31.2345 32.3706 31.7856 30.8755 32.026 29.3158C32.2665 27.756 32.1912 26.1636 31.805 24.6338C31.7401 24.4166 31.6751 24.1994 31.6319 23.9822C31.6324 23.975 31.6324 23.9677 31.6319 23.9605C31.5169 23.4326 31.4589 22.8938 31.4587 22.3534C31.4677 20.635 32.0548 18.9702 33.1249 17.6289C34.195 16.2875 35.6853 15.3483 37.354 14.9636C38.0421 14.8049 38.7442 14.7444 39.4398 14.7798C41.7068 17.6881 43.0579 21.35 43.0579 25.3287Z" fill="url(#paint2_linear_28_419)"/>
<defs>
<linearGradient id="paint0_linear_28_419" x1="20.3558" y1="7.49461" x2="3.97318" y2="33.2343" gradientUnits="userSpaceOnUse">
<stop stop-color="#0AA3F9"/>
<stop offset="1" stop-color="#B5B4FF"/>
</linearGradient>
<linearGradient id="paint1_linear_28_419" x1="53.1982" y1="47.0999" x2="27.0594" y2="13.7703" gradientUnits="userSpaceOnUse">
<stop stop-color="#0AA3F9"/>
<stop offset="1" stop-color="#B5B4FF"/>
</linearGradient>
<linearGradient id="paint2_linear_28_419" x1="38.5078" y1="14.7769" x2="14.3541" y2="39.3688" gradientUnits="userSpaceOnUse">
<stop stop-color="#7ABBFD"/>
<stop offset="1" stop-color="#7ABBFD" stop-opacity="0"/>
</linearGradient>
</defs>
</svg>
