<svg width="56" height="56" viewBox="0 0 56 56" fill="none" xmlns="http://www.w3.org/2000/svg">
<path d="M43.4138 37.7281C42.7456 38.4081 41.4095 39.4281 39.0712 39.4281H24.7069C29.0495 35.178 32.7241 31.6079 33.0582 31.2679C33.3921 30.9279 34.2273 30.0779 35.0624 29.3979C36.7326 27.8678 38.069 27.6979 39.238 27.6979C40.9084 27.6979 42.2446 28.3778 43.4138 29.3979C45.7521 31.6079 45.7521 35.518 43.4138 37.7281ZM46.2531 26.6778C44.5829 24.8078 42.0775 23.6177 39.4051 23.6177C37.0667 23.6177 35.0625 24.4677 33.2252 25.8278C32.557 26.5078 31.5549 27.1878 30.7199 28.2078C30.0516 28.8877 15.6875 43.1681 15.6875 43.1681C16.5226 43.3381 17.5249 43.3381 18.3598 43.3381H36.5657C37.9018 43.3381 38.9039 43.3381 39.9062 43.1681C42.0775 42.9981 44.2488 42.1482 46.0861 40.448C49.9277 36.7079 49.9277 30.4179 46.2531 26.6778Z" fill="#00A3FF"/>
<path d="M22.5154 25.6755C20.6678 24.3037 18.8202 23.6177 16.6368 23.6177C13.9494 23.6177 11.4303 24.818 9.75064 26.7045C6.0556 30.6486 6.0556 36.8219 9.91856 40.766C11.5982 42.3094 13.2778 43.1667 15.2933 43.3381L19.1562 39.5656H16.9728C14.7894 39.394 13.4457 38.7081 12.6059 37.8508C10.2546 35.4501 10.2546 31.6774 12.438 29.2766C13.6136 28.0763 14.9573 27.5618 16.6368 27.5618C17.6446 27.5618 19.1562 27.7332 20.6678 29.2766C21.3397 29.9625 23.1871 31.3345 23.859 32.0204H24.0269L26.5463 29.4481V29.2766C25.3706 28.0763 23.523 26.5329 22.5153 25.6755" fill="#00C8DC"/>
<path d="M40.3009 21.2577C38.4302 16.2012 33.4985 12.6616 27.8868 12.6616C21.2547 12.6616 15.9832 17.5495 14.9629 23.6173C15.473 23.6173 15.9832 23.4489 16.6633 23.4489C17.3436 23.4489 18.194 23.6173 18.8741 23.6173C19.7242 19.4037 23.4655 16.3698 27.8868 16.3698C31.628 16.3698 34.8589 18.5609 36.3894 21.7633C36.3894 21.7633 36.5596 21.9319 36.5596 21.7633C37.7499 21.5948 39.1103 21.2577 40.3006 21.2577C40.3006 21.4262 40.3006 21.4262 40.3006 21.2577" fill="#006EFF"/>
</svg>
