<svg width="56" height="56" viewBox="0 0 56 56" fill="none" xmlns="http://www.w3.org/2000/svg">
<path fill-rule="evenodd" clip-rule="evenodd" d="M34.2864 18.4825C37.6534 17.8084 41.0538 19.5947 42.331 22.7258C46.4524 23.7451 49.5018 27.3938 49.5 31.7402C49.498 36.8728 45.2411 41.0342 39.9838 41.0321C36.0198 41.0306 32.6248 38.6608 31.1994 35.2933C30.7606 34.2704 30.5091 33.1512 30.485 31.9789L28.0785 31.9779C27.9117 31.9779 27.8282 31.7807 27.9461 31.6656L32.8432 26.8835C32.9348 26.7942 33.0827 26.7942 33.1743 26.8835L38.072 31.669C38.19 31.7843 38.1063 31.9815 37.9395 31.9815L35.3976 31.9807C35.4811 32.5681 35.668 33.1509 35.9779 33.7017C37.3649 36.1657 40.5668 37.0355 43.0635 35.5959C45.244 34.3387 46.1659 31.6146 45.1712 29.3397C44.1301 26.9586 41.4922 25.8361 39.1055 26.473C39.6011 24.9205 38.9386 23.1887 37.4289 22.3619C35.9192 21.5352 34.0618 21.8875 32.9656 23.1109L32.9639 23.1107C31.7481 20.2802 28.7315 18.4523 25.4559 18.8298C21.9206 19.237 19.2905 22.0808 19.0913 25.4371C17.3282 24.51 15.1002 24.4842 13.2173 25.6715C11.1218 26.9928 10.1316 29.5644 10.8232 31.9059C11.5789 34.4645 13.9123 35.998 16.3646 35.9996L29.1816 36.0044C29.2793 36.0044 29.3665 36.0619 29.4049 36.1498C30.0041 37.5203 30.8722 38.7512 31.9458 39.778C32.0411 39.8691 31.9785 40.0249 31.8452 40.0249L16.3711 40.0189L16.3651 40.0191L16.359 40.0194C10.9141 40.0174 6.49797 35.6981 6.5 30.3775C6.50203 25.0519 10.9218 20.741 16.3666 20.7432H16.3815C18.2191 17.3091 21.9026 14.9662 26.1429 14.9678C29.3713 14.9691 32.2734 16.3256 34.2864 18.4825Z" fill="#DF0428"/>
</svg>
