<svg width="56" height="56" viewBox="0 0 56 56" fill="none" xmlns="http://www.w3.org/2000/svg">
<g clip-path="url(#clip0_27_203)">
<path d="M21.9333 11.7668C21.7566 11.4777 21.5091 11.2385 21.2141 11.0719C20.9191 10.9052 20.5864 10.8166 20.2476 10.8145H10C9.46957 10.8145 8.96086 11.0252 8.58579 11.4002C8.21071 11.7753 8 12.284 8 12.8145C8 13.1915 8.10557 13.561 8.30476 13.8811L10.9429 17.7573L24.1333 14.9002L21.9333 11.7668Z" fill="#C9F4FF"/>
<path d="M24.192 14.976C24.0131 14.6868 23.7638 14.4477 23.4673 14.2811C23.1708 14.1145 22.8369 14.0259 22.4968 14.0236H12.2873C11.9203 14.0067 11.5558 14.0916 11.2341 14.2691C10.9124 14.4465 10.6461 14.7096 10.4647 15.029C10.2833 15.3485 10.1938 15.7119 10.2062 16.0791C10.2186 16.4462 10.3324 16.8028 10.5349 17.1093L13.4777 21.776L27.1063 19.6426L24.192 14.976Z" fill="#51B9FF"/>
<path d="M13.3521 21.586C13.1869 21.3213 13.0847 21.0222 13.0533 20.7118C13.0219 20.4014 13.0622 20.0879 13.1711 19.7955C13.3206 19.414 13.5832 19.0872 13.9237 18.8591C14.2641 18.631 14.6662 18.5125 15.0759 18.5193H25.2854C25.6257 18.5208 25.9599 18.609 26.2566 18.7756C26.5532 18.9423 26.8024 19.1819 26.9807 19.4717L36.1521 34.0146C36.3513 34.3347 36.4569 34.7042 36.4569 35.0812C36.4554 35.4581 36.3499 35.8272 36.1521 36.1479L31.0283 44.2717C30.8468 44.5569 30.5963 44.7916 30.3 44.9543C30.0036 45.1169 29.6711 45.2022 29.333 45.2022C28.995 45.2022 28.6625 45.1169 28.3661 44.9543C28.0698 44.7916 27.8193 44.5569 27.6378 44.2717L13.3521 21.586Z" fill="#007BFC"/>
<path d="M39.1813 26.2335C39.3628 26.5187 39.6133 26.7534 39.9096 26.9161C40.2059 27.0787 40.5385 27.164 40.8765 27.164C41.2145 27.164 41.5471 27.0787 41.8434 26.9161C42.1397 26.7534 42.3902 26.5187 42.5717 26.2335L44.3336 23.443L47.6956 18.1097C47.8947 17.7896 48.0003 17.4201 48.0003 17.043C47.9988 16.6662 47.8934 16.2971 47.6956 15.9764L45.0289 11.7668C44.85 11.4776 44.6006 11.2385 44.3041 11.072C44.0076 10.9054 43.6737 10.8168 43.3336 10.8145H33.086C32.8234 10.8145 32.5633 10.8662 32.3207 10.9667C32.078 11.0672 31.8575 11.2145 31.6718 11.4002C31.4861 11.586 31.3388 11.8064 31.2383 12.0491C31.1378 12.2917 31.086 12.5518 31.086 12.8145C31.0824 13.1934 31.1918 13.5647 31.4003 13.8811L39.1813 26.2335Z" fill="#007BFC"/>
</g>
<defs>
<clipPath id="clip0_27_203">
<rect width="40" height="34.3714" fill="white" transform="translate(8 10.8145)"/>
</clipPath>
</defs>
</svg>
