<svg width="56" height="56" viewBox="0 0 56 56" fill="none" xmlns="http://www.w3.org/2000/svg">
<path d="M28.0001 8.5C17.2302 8.5 8.5 17.2302 8.5 28.0001C8.5 38.7698 17.2302 47.5 28.0001 47.5C38.7698 47.5 47.5 38.7698 47.5 28.0001C47.5 17.2302 38.7698 8.5 28.0001 8.5ZM37.0104 25.3886C36.9714 25.5581 36.8701 25.8096 36.7297 26.1097H36.7336L36.718 26.1389C35.8991 27.8889 33.7623 31.3227 33.7623 31.3227L33.7526 31.2993L33.1286 32.3868H36.137L30.3897 40.0243L31.6958 34.8287H29.327L30.1498 31.393C29.4851 31.5529 28.6973 31.7729 27.7655 32.073C27.7655 32.073 26.506 32.8098 24.1354 30.6544C24.1354 30.6544 22.5366 29.2453 23.4647 28.8946C23.8585 28.7446 25.3772 28.5535 26.5723 28.3937C28.1904 28.1755 29.1827 28.0586 29.1827 28.0586C29.1827 28.0586 24.2016 28.1326 23.0202 27.9474C21.8386 27.7624 20.3395 25.7901 20.0197 24.0575C20.0197 24.0575 19.5264 23.1065 21.0823 23.5566C22.6381 24.007 29.0775 25.3107 29.0775 25.3107C29.0775 25.3107 20.7041 22.7441 20.1444 22.1165C19.5869 21.4929 18.5049 18.6982 18.6453 16.9834C18.6453 16.9834 18.7058 16.5546 19.1464 16.6714C19.1464 16.6714 25.3382 19.4974 29.5708 21.0467C33.8053 22.596 37.486 23.3833 37.0104 25.3886Z" fill="#3AA2EB"/>
</svg>
