<svg width="56" height="56" viewBox="0 0 56 56" fill="none" xmlns="http://www.w3.org/2000/svg">
<path d="M41.9138 15.3356C41.9027 15.3141 41.8842 15.2972 41.8618 15.288C39.2684 14.0981 36.5316 13.2496 33.7199 12.7638C33.6943 12.7591 33.6679 12.7625 33.6445 12.7736C33.621 12.7847 33.6016 12.8029 33.5891 12.8257C33.2164 13.5021 32.8781 14.1969 32.5755 14.9073C29.5446 14.4473 26.4617 14.4473 23.4308 14.9073C23.1261 14.1951 22.7824 13.5001 22.4012 12.8257C22.3881 12.8034 22.3686 12.7856 22.3453 12.7746C22.322 12.7635 22.2958 12.7598 22.2703 12.7638C19.4583 13.2486 16.7213 14.0972 14.1282 15.2881C14.106 15.2975 14.0873 15.3136 14.0746 15.3341C8.88897 23.0782 7.46842 30.6319 8.1653 38.0921C8.16726 38.1103 8.17288 38.128 8.18182 38.1441C8.19076 38.1602 8.20284 38.1743 8.21734 38.1856C11.2369 40.4213 14.6143 42.1279 18.2055 43.2325C18.2308 43.2401 18.2578 43.2397 18.2829 43.2315C18.3079 43.2233 18.3299 43.2076 18.3458 43.1865C19.1171 42.137 19.8005 41.0257 20.3891 39.8639C20.3972 39.848 20.4019 39.8305 20.4027 39.8126C20.4035 39.7948 20.4006 39.7769 20.394 39.7603C20.3875 39.7437 20.3775 39.7286 20.3647 39.7161C20.3519 39.7036 20.3366 39.694 20.3198 39.6878C19.2421 39.2755 18.1988 38.7784 17.1995 38.2012C17.1814 38.1906 17.1662 38.1756 17.1552 38.1576C17.1442 38.1397 17.1378 38.1193 17.1365 38.0983C17.1353 38.0772 17.1392 38.0562 17.148 38.0371C17.1568 38.018 17.1702 38.0013 17.187 37.9886C17.3972 37.8315 17.6038 37.6696 17.8066 37.5031C17.8244 37.4884 17.8459 37.479 17.8688 37.476C17.8916 37.4729 17.9148 37.4762 17.9359 37.4857C24.4821 40.4732 31.5693 40.4732 38.038 37.4857C38.0591 37.4756 38.0826 37.4718 38.1057 37.4746C38.1289 37.4774 38.1508 37.4867 38.1689 37.5015C38.3719 37.669 38.579 37.8314 38.7901 37.9886C38.807 38.0012 38.8204 38.0178 38.8294 38.0368C38.8383 38.0559 38.8424 38.0768 38.8413 38.0979C38.8402 38.1189 38.834 38.1393 38.8231 38.1573C38.8123 38.1754 38.7971 38.1904 38.7791 38.2012C37.7821 38.7832 36.7378 39.28 35.6573 39.6863C35.6405 39.6927 35.6253 39.7025 35.6126 39.7152C35.5999 39.7279 35.59 39.7431 35.5835 39.7599C35.5771 39.7766 35.5743 39.7946 35.5753 39.8125C35.5763 39.8304 35.5811 39.8479 35.5893 39.8639C36.1877 41.0193 36.8702 42.1292 37.631 43.1847C37.6465 43.2063 37.6684 43.2226 37.6935 43.2311C37.7187 43.2396 37.746 43.2401 37.7714 43.2323C41.369 42.1315 44.7523 40.4247 47.7756 38.1856C47.7904 38.1748 47.8026 38.1611 47.8116 38.1452C47.8206 38.1294 47.8261 38.1118 47.8277 38.0936C48.662 29.4689 46.4309 21.9771 41.9138 15.3356ZM21.3668 33.5496C19.3959 33.5496 17.7719 31.7409 17.7719 29.5197C17.7719 27.2985 19.3644 25.4897 21.3668 25.4897C23.3848 25.4897 24.993 27.3142 24.9615 29.5196C24.9615 31.7409 23.369 33.5496 21.3668 33.5496ZM34.658 33.5496C32.6872 33.5496 31.0632 31.7409 31.0632 29.5197C31.0632 27.2985 32.6557 25.4897 34.658 25.4897C36.6761 25.4897 38.2843 27.3142 38.2528 29.5196C38.2528 31.7409 36.6761 33.5496 34.658 33.5496Z" fill="#5865F2"/>
</svg>
