<svg width="56" height="56" viewBox="0 0 56 56" fill="none" xmlns="http://www.w3.org/2000/svg">
<g clip-path="url(#clip0_28_521)">
<path d="M37.6076 22.8534C37.5078 22.8581 37.4817 22.813 37.4722 22.718C37.4603 22.6183 37.4674 22.4971 37.4176 22.4188C37.3226 22.2691 37.3487 22.0934 37.2679 21.939C37.2222 21.8577 37.1901 21.7694 37.1729 21.6777C37.1682 21.6207 37.1824 21.5447 37.1421 21.5162C37.0566 21.4545 37.0898 21.3524 37.0352 21.2716C36.9758 21.1837 36.9711 21.0579 36.9259 20.951C36.8784 20.8394 36.8238 20.7206 36.8119 20.5971C36.8072 20.5377 36.7407 20.5354 36.7407 20.476C36.7478 20.3762 36.6742 20.2931 36.6504 20.1981C36.6172 20.0723 36.5459 19.9488 36.4984 19.8253C36.4619 19.7249 36.4199 19.6265 36.3726 19.5308C36.3037 19.3954 36.2467 19.2576 36.1683 19.1246C36.0923 19.0059 36.0733 18.8563 35.9902 18.728C35.923 18.6223 35.865 18.5111 35.8168 18.3955C35.7384 18.2103 35.6221 18.0488 35.5318 17.873C35.4461 17.6984 35.3534 17.5272 35.2539 17.36C35.1589 17.2009 35.0758 17.0322 34.9642 16.8779C34.9191 16.8137 34.8502 16.752 34.8383 16.6807C34.8217 16.5786 34.7433 16.505 34.6958 16.4433C34.6269 16.3649 34.6246 16.22 34.4916 16.1891C34.4916 16.1891 34.4868 16.1773 34.4892 16.1701C34.4987 16.0633 34.3467 16.0324 34.3609 15.9208C34.2422 15.8804 34.2778 15.7094 34.1448 15.6761C34.1448 15.6761 34.1377 15.6666 34.1401 15.6619C34.1519 15.5526 34.0451 15.4932 33.9999 15.422C33.9396 15.3313 33.8712 15.2463 33.7957 15.1679C33.7601 15.1299 33.7007 15.0966 33.6888 15.0491C33.6413 14.8876 33.4869 14.8069 33.4086 14.6644C33.3349 14.5337 33.2067 14.4482 33.1069 14.339C33.0098 14.2244 32.8891 14.132 32.7531 14.0683C32.6272 14.0208 32.5251 13.9162 32.3731 13.9067C32.2163 13.8996 32.0667 13.807 31.9028 13.8118C31.9028 13.7761 31.8909 13.75 31.8482 13.75H15.3966C15.3514 13.75 15.3419 13.7761 15.3419 13.8118C15.2327 13.8046 15.1733 13.8949 15.1377 13.959C15.0569 14.1015 15.1733 14.3651 15.3301 14.4293C15.3966 14.453 15.4322 14.5005 15.4773 14.5433C15.5011 14.567 15.5248 14.605 15.5581 14.6003C15.6246 14.5931 15.6531 14.6406 15.6721 14.6786C15.6958 14.7309 15.7433 14.7499 15.7813 14.7689C15.8966 14.8281 16.0029 14.9032 16.0972 14.9921C16.2373 15.1228 16.3941 15.2296 16.5484 15.3413C16.6743 15.4339 16.7764 15.555 16.9166 15.631C17.0211 15.6856 17.0781 15.8068 17.1778 15.8566C17.3203 15.9279 17.3987 16.0633 17.5341 16.1321C17.6152 16.1796 17.6862 16.2425 17.7431 16.3174C17.7977 16.3791 17.8951 16.3839 17.9402 16.4456C18.0661 16.6356 18.2846 16.7211 18.4342 16.8921C18.5791 17.0584 18.7857 17.1581 18.9377 17.3339C19.1182 17.5429 19.3604 17.6901 19.5552 17.8873C19.6929 18.0226 19.8307 18.1485 19.9684 18.2791C20.0777 18.3813 20.1869 18.481 20.2891 18.5879C20.3651 18.6639 20.4624 18.7233 20.5337 18.7898C20.7094 18.9608 20.9137 19.1127 21.0372 19.3336L21.0633 19.3669C21.1987 19.4927 21.3341 19.621 21.4671 19.7516C21.6286 19.9131 21.7853 20.0889 21.9611 20.2433C22.0342 20.2968 22.0956 20.3646 22.1416 20.4427C22.1772 20.5259 22.2366 20.5781 22.2936 20.6327C22.4432 20.7752 22.6047 20.913 22.7116 21.0982C22.7543 21.1742 22.8446 21.2004 22.8897 21.274C22.9491 21.3666 23.0393 21.4308 23.0987 21.5305C23.1866 21.673 23.3362 21.7727 23.4359 21.9224C23.5333 22.0696 23.6639 22.2097 23.7898 22.3356C23.9299 22.4781 24.0273 22.6491 24.1769 22.7774C24.2553 22.8439 24.2624 22.9674 24.3646 23.0077C24.4144 23.0315 24.4311 23.0742 24.4453 23.1099C24.4999 23.2262 24.5997 23.307 24.6638 23.4163C24.7256 23.5231 24.8301 23.592 24.9013 23.6989C25.0319 23.8984 25.1816 24.0907 25.3431 24.2689C25.3953 24.3282 25.3906 24.4209 25.4666 24.4494C25.5806 24.4969 25.5996 24.618 25.6566 24.6988C25.7349 24.8056 25.8371 24.8959 25.8941 25.0123C25.9558 25.1358 26.0579 25.2284 26.1221 25.3447C26.1838 25.4469 26.2598 25.5395 26.3216 25.6416C26.3691 25.72 26.4118 25.8079 26.4783 25.8791C26.5496 25.9504 26.5733 26.062 26.6588 26.1309C26.7348 26.1926 26.7491 26.2924 26.8203 26.3636C26.8939 26.4444 26.9248 26.5655 27.0056 26.6439C27.0768 26.7104 27.1101 26.803 27.1599 26.8814C27.1956 26.936 27.2692 26.9693 27.2787 27.0429C27.2858 27.1236 27.3476 27.1735 27.3879 27.2329C27.4497 27.3255 27.5304 27.4157 27.5661 27.5036C27.6326 27.6675 27.7442 27.791 27.8226 27.9382C27.9152 28.0997 28.0292 28.2636 28.1218 28.4323C28.1931 28.5534 28.2619 28.6769 28.3379 28.7885C28.3712 28.8479 28.3641 28.9239 28.4282 28.9666C28.5042 29.0212 28.5208 29.1139 28.5636 29.1899C28.6016 29.2564 28.6277 29.3395 28.6823 29.3846C28.7251 29.4226 28.7251 29.4559 28.7346 29.5034C28.7987 29.5271 28.8319 29.4773 28.8699 29.4416L29.1739 29.14L29.8009 28.5225C29.9791 28.3444 30.1453 28.1567 30.3306 27.9857C30.6559 27.6889 30.9552 27.3682 31.2806 27.0666C31.4919 26.8695 31.6819 26.651 31.9147 26.4729C32.1189 26.3185 32.2899 26.1214 32.4752 25.9409L32.8837 25.5324C33.0262 25.3899 33.2091 25.2996 33.3397 25.1476C33.3501 25.1327 33.3639 25.1205 33.3801 25.112C33.5178 25.0574 33.6128 24.9457 33.7268 24.8626C33.8598 24.7676 33.9928 24.6726 34.1211 24.5729C34.1876 24.5206 34.2707 24.4969 34.3277 24.4399C34.4916 24.276 34.7077 24.2024 34.8977 24.0884C35.0996 23.9696 35.3062 23.8509 35.5152 23.7511C35.6672 23.6799 35.8002 23.5682 35.9617 23.5374C36.1517 23.497 36.2871 23.3711 36.4652 23.3141C36.5198 23.2999 36.5863 23.2927 36.6362 23.2547C36.7383 23.174 36.8784 23.174 36.9924 23.1194C37.0471 23.0933 37.1088 23.0576 37.1706 23.0481C37.3131 23.0315 37.4366 22.965 37.5743 22.9294C37.6099 22.9222 37.6408 22.9009 37.6076 22.8534Z" fill="#00D6B9"/>
<path d="M41.5151 32.7974C41.4771 32.7737 41.4509 32.8069 41.4272 32.8307C41.3559 32.8972 41.3013 32.9827 41.2396 33.0587L40.9284 33.4244C40.7147 33.6595 40.4819 33.8852 40.2492 34.0965C40.0663 34.2628 39.8644 34.4053 39.6673 34.5525C39.5961 34.6072 39.5224 34.6665 39.4464 34.7164C39.3633 34.7734 39.2921 34.8494 39.2018 34.8874C39.0308 34.9587 38.8788 35.0655 38.7197 35.1582C38.4442 35.3102 38.1568 35.4432 37.8647 35.5572C37.6984 35.626 37.5346 35.6997 37.3659 35.7519C37.2282 35.7947 37.0952 35.854 36.9574 35.8873C36.9099 35.8992 36.8624 35.8944 36.8173 35.911C36.6819 35.9609 36.5394 35.9918 36.3969 36.0274C36.2758 36.0583 36.1428 36.0322 36.0359 36.082C35.8744 36.158 35.6892 36.0868 35.5372 36.1889C35.2997 36.1889 35.0646 36.2127 34.8294 36.234C34.4114 36.2649 33.9934 36.2055 33.5754 36.1937C33.3854 36.1889 33.2049 36.0939 33.0126 36.1224C33.0069 36.1227 33.0012 36.1218 32.9959 36.1198C32.9905 36.1177 32.9857 36.1146 32.9817 36.1105C32.9199 36.063 32.8463 36.063 32.7774 36.063C32.6302 36.063 32.4877 36.0322 32.3499 36.006C32.2146 35.9775 32.0768 35.9253 31.9438 35.8802C31.8654 35.854 31.7799 35.8683 31.7087 35.8327C31.6056 35.7834 31.4961 35.749 31.3833 35.7305C31.1221 35.6759 30.8822 35.5667 30.6186 35.5239C30.4452 35.4954 30.2932 35.398 30.1198 35.3624C29.9963 35.3339 29.8776 35.2912 29.7612 35.2532C29.6116 35.2057 29.4619 35.1534 29.3099 35.1154C29.0677 35.0489 28.8468 34.9468 28.6093 34.8708C28.3267 34.7758 28.0536 34.6665 27.7709 34.5715C27.6047 34.5169 27.4574 34.4172 27.2769 34.3887C27.2005 34.3755 27.1272 34.3481 27.0608 34.3079C26.9278 34.2319 26.7758 34.2058 26.6428 34.1417C26.5288 34.0847 26.4006 34.0585 26.2889 34.0039C26.1037 33.9089 25.8899 33.8804 25.7213 33.7474C25.7094 33.7395 25.6953 33.7353 25.6809 33.7355C25.5456 33.7213 25.4244 33.6595 25.3057 33.6002C25.0492 33.4743 24.7713 33.3912 24.5196 33.2534C24.3177 33.1418 24.0968 33.0777 23.8949 32.9684C23.8474 32.9589 23.8071 32.9684 23.7596 32.9447C23.6764 32.9019 23.5957 32.8354 23.5102 32.8117C23.3439 32.7665 23.2204 32.6454 23.0566 32.5979C22.9639 32.5718 22.8927 32.4887 22.8072 32.4673C22.6979 32.4412 22.6077 32.3865 22.5222 32.3367C22.3797 32.2559 22.2229 32.2013 22.0781 32.1134C21.9997 32.0635 21.8976 32.0469 21.8287 31.9899C21.7266 31.9044 21.5674 31.9092 21.4962 31.7785C21.3228 31.7643 21.2064 31.6313 21.0568 31.5695C20.8787 31.4983 20.7196 31.3843 20.5509 31.2893C20.4797 31.2489 20.4156 31.1753 20.3467 31.1634C20.1638 31.1254 20.0379 30.9948 19.8859 30.9117C19.7084 30.8186 19.5364 30.7155 19.3706 30.6029C19.3421 30.5863 19.3017 30.5887 19.2827 30.5673C19.1758 30.4462 19.0214 30.3844 18.8861 30.3013C18.7544 30.2238 18.6238 30.1446 18.4942 30.0638C18.3327 29.9617 18.1688 29.8619 18.0168 29.755C17.9147 29.6814 17.7888 29.6363 17.7009 29.5532C17.6368 29.4938 17.5584 29.4724 17.4919 29.4178C17.3732 29.3204 17.2331 29.2397 17.1048 29.1518C17.0454 29.1114 16.9647 29.0734 16.9243 29.0283C16.8459 28.9428 16.7391 28.8977 16.6559 28.8288C16.5301 28.7219 16.3733 28.6483 16.2498 28.5367C16.1762 28.4725 16.0669 28.4607 16.0123 28.3704C15.9933 28.3348 15.9577 28.3087 15.9102 28.2968C15.8271 28.273 15.7701 28.2065 15.7036 28.1614C15.6038 28.0925 15.5136 27.9999 15.4091 27.9287C15.2856 27.8455 15.1763 27.7339 15.0481 27.6579C14.9103 27.5748 14.8129 27.4442 14.6752 27.3658C14.5897 27.3135 14.5398 27.2185 14.4567 27.1805C14.3118 27.1164 14.2239 26.9882 14.0909 26.9098C13.9888 26.8433 13.9176 26.7198 13.8083 26.6652C13.6801 26.5963 13.6041 26.4775 13.4901 26.3992C13.4592 26.3754 13.4188 26.3707 13.3903 26.3327C13.3191 26.2448 13.2169 26.1783 13.1338 26.0999C13.0436 26.0192 12.9319 25.9645 12.8488 25.8672C12.7847 25.7959 12.7158 25.7009 12.6351 25.6677C12.5092 25.6202 12.4546 25.5109 12.3572 25.4397C12.2337 25.3542 12.1434 25.2283 12.0247 25.1333C11.9487 25.0739 11.8632 25.0264 11.8038 24.9504C11.7136 24.8364 11.5996 24.739 11.4951 24.6417C11.3597 24.5087 11.2291 24.3709 11.0913 24.2427C10.9821 24.1477 10.8823 24.0384 10.7707 23.9387C10.6686 23.8484 10.5759 23.7439 10.4714 23.6537C10.3337 23.5254 10.2078 23.3829 10.0796 23.2499C9.95132 23.1169 9.81357 22.991 9.68769 22.8533C9.58082 22.7322 9.47157 22.5849 9.26257 22.6277C9.15807 22.6514 9.11057 22.7155 9.07257 22.7987C8.96569 22.8105 9.00844 22.8937 9.00844 22.9388V38.3098C9.00844 38.3715 9.01557 38.4309 9.01319 38.4903C9.01319 38.5378 9.02744 38.5592 9.07257 38.5615C9.04407 38.704 9.13907 38.8157 9.16044 38.9463C9.17469 39.0413 9.23407 39.1173 9.26969 39.2052C9.32194 39.3239 9.42169 39.4237 9.49294 39.5377C9.55583 39.6349 9.63639 39.7195 9.73044 39.787C9.83019 39.8583 9.92994 39.9319 10.0344 39.996C10.1603 40.0673 10.2791 40.1552 10.3954 40.2359C10.4311 40.2597 10.4714 40.2644 10.5094 40.3C10.6255 40.3951 10.7532 40.4749 10.8894 40.5375C10.9797 40.585 11.0652 40.6468 11.1626 40.6872C11.3787 40.7774 11.5639 40.9389 11.7872 41.0268C11.9107 41.0743 12.0057 41.1622 12.1339 41.2002C12.1624 41.212 12.1981 41.2144 12.2242 41.231C12.4023 41.3545 12.6042 41.4258 12.7989 41.5232C12.8393 41.5469 12.8916 41.5469 12.9224 41.5707C13.0255 41.652 13.1471 41.7067 13.2763 41.7298C13.3001 41.7345 13.3191 41.7369 13.3452 41.7559C13.3974 41.7963 13.4639 41.8272 13.5281 41.8628C13.5993 41.9032 13.6919 41.8794 13.7561 41.9483C13.7798 41.9768 13.8392 42.0124 13.8843 42.0195C14.0743 42.0552 14.2501 42.1454 14.4282 42.2143C14.4804 42.238 14.5517 42.2143 14.5897 42.257C14.6609 42.3283 14.7607 42.3283 14.8414 42.3639C14.9602 42.4162 15.0861 42.4589 15.2214 42.4898C15.2761 42.504 15.3544 42.4898 15.3901 42.5302C15.4589 42.6062 15.5611 42.6109 15.6347 42.6299C15.8294 42.6774 16.0194 42.7392 16.2094 42.8033C16.3614 42.8579 16.5324 42.8698 16.6939 42.9173C16.8293 42.9553 16.9647 43.0004 17.1001 43.0242C17.1642 43.036 17.2544 43.0099 17.2901 43.0432C17.3946 43.1453 17.5347 43.0859 17.6511 43.1429C17.7828 43.199 17.9264 43.2218 18.0691 43.2094C18.0976 43.207 18.1379 43.1999 18.1522 43.2142C18.2591 43.3234 18.4277 43.2142 18.5322 43.3258C18.7744 43.3472 19.0191 43.359 19.2589 43.4279C19.4133 43.4754 19.5843 43.4517 19.7482 43.4873C19.9453 43.5348 20.1591 43.5205 20.3657 43.5419C20.5011 43.5538 20.6341 43.549 20.7694 43.5514C20.7694 43.5942 20.7932 43.6108 20.8359 43.6084H23.7667C23.8094 43.6084 23.8356 43.5942 23.8356 43.5514C24.1609 43.568 24.4816 43.492 24.8046 43.5039H24.9827C25.0278 43.5039 25.0516 43.4873 25.0492 43.4422C25.1941 43.4327 25.3389 43.416 25.4838 43.3875C25.7118 43.34 25.9493 43.3519 26.1773 43.2783C26.2913 43.2403 26.4219 43.2474 26.5431 43.2165C26.6856 43.1833 26.8352 43.1453 26.9896 43.1572C27.0062 43.1572 27.0323 43.1572 27.0418 43.15C27.1178 43.0479 27.2437 43.0954 27.3458 43.0479C27.4567 43.0007 27.577 42.9795 27.6973 42.9862C27.7139 42.9862 27.7353 42.9862 27.7519 42.979C27.8584 42.9178 27.9765 42.8798 28.0987 42.8674C28.2635 42.843 28.4251 42.8008 28.5808 42.7415C28.6966 42.6996 28.8158 42.6678 28.9371 42.6465C28.9608 42.6418 28.9917 42.6418 29.0059 42.6252C29.0748 42.5539 29.1722 42.5539 29.2506 42.5302C29.4073 42.4898 29.5569 42.4304 29.7113 42.3829C29.7636 42.371 29.8229 42.3853 29.8657 42.3568C29.9859 42.2719 30.1241 42.2158 30.2694 42.1929C30.2932 42.1922 30.3162 42.1848 30.3359 42.1715C30.4072 42.1288 30.4713 42.0765 30.5616 42.067C30.6851 42.0528 30.8062 41.991 30.9131 41.9364C31.0081 41.8889 31.1102 41.8533 31.2052 41.8058C31.2764 41.7678 31.3572 41.7203 31.4451 41.7037C31.5733 41.6823 31.6588 41.573 31.7871 41.5445C31.8854 41.5198 31.9791 41.4797 32.0649 41.4258C32.2027 41.3498 32.3476 41.2833 32.4877 41.2168C32.5779 41.1693 32.6801 41.1313 32.7537 41.079C32.8647 41.0016 32.9833 40.9356 33.1076 40.8819C33.2643 40.8107 33.4044 40.7109 33.5588 40.6444C33.6966 40.5803 33.8201 40.4805 33.9531 40.4069C34.0219 40.3665 34.0837 40.3072 34.1502 40.2739C34.2238 40.2359 34.2974 40.1932 34.3663 40.148C34.4589 40.0839 34.5682 40.0459 34.6466 39.9675C34.7178 39.8963 34.8128 39.8725 34.8841 39.8084C34.9719 39.7348 35.0883 39.6992 35.1691 39.6184C35.1976 39.5899 35.2142 39.5638 35.2522 39.5638C35.2731 39.5612 35.2932 39.5536 35.3105 39.5416C35.3279 39.5296 35.3421 39.5136 35.3519 39.4949C35.3777 39.4533 35.4159 39.4209 35.4612 39.4023C35.5894 39.3572 35.6559 39.236 35.7747 39.1743C35.8483 39.141 35.9101 39.0722 35.9789 39.0223C36.0977 38.9415 36.2069 38.856 36.3186 38.7682C36.3803 38.7207 36.4349 38.6352 36.4967 38.6162C36.6344 38.5734 36.6748 38.4262 36.8007 38.3715C36.8452 38.3495 36.8854 38.3197 36.9194 38.2837C37.0144 38.1768 37.1332 38.0889 37.2448 37.9844C37.3113 37.9132 37.4039 37.8799 37.4704 37.8039C37.547 37.7108 37.6321 37.6249 37.7246 37.5474C37.8058 37.4803 37.882 37.4072 37.9526 37.3289L38.3587 36.9252C38.4941 36.7945 38.6223 36.6615 38.7577 36.5333C38.8387 36.456 38.9119 36.3709 38.9762 36.2792C39.0462 36.1826 39.1284 36.0956 39.2208 36.0203C39.2921 35.9633 39.3134 35.8778 39.3776 35.8184C39.4746 35.739 39.558 35.6444 39.6246 35.5382C39.6958 35.4123 39.8217 35.3339 39.8906 35.2057C39.9381 35.1154 40.0331 35.0537 40.0901 34.9634C40.1494 34.866 40.2278 34.7782 40.3014 34.6903C40.3822 34.5953 40.4748 34.4908 40.5294 34.3815C40.5864 34.2628 40.6886 34.1915 40.7432 34.0728C40.8035 33.9663 40.8743 33.866 40.9546 33.7735C41.0092 33.7047 41.0424 33.631 41.0876 33.5598C41.1588 33.4505 41.2348 33.346 41.3108 33.2392C41.3393 33.1917 41.3464 33.1442 41.3868 33.0967C41.4581 33.0207 41.5412 32.9304 41.5222 32.8045" fill="#3370FF"/>
<path d="M46.9459 23.5588C46.9316 23.5375 46.915 23.5375 46.8936 23.5327C46.8319 23.5137 46.7654 23.4995 46.7107 23.4686C46.6511 23.426 46.5875 23.3894 46.5207 23.3593C46.421 23.319 46.3046 23.3047 46.2191 23.2453C46.1027 23.1551 45.9579 23.1575 45.832 23.0933C45.7429 23.0447 45.6467 23.0102 45.547 22.9912C45.4734 22.9793 45.395 22.9437 45.3214 22.92C45.2216 22.8891 45.1147 22.8535 45.0126 22.825C44.8501 22.7857 44.6892 22.7397 44.5305 22.6872C44.4216 22.6449 44.3052 22.6255 44.1885 22.6302C44.1624 22.521 44.0721 22.5851 44.0104 22.5708C43.9296 22.5708 43.8536 22.5305 43.7776 22.5186C43.5306 22.4735 43.2789 22.4663 43.0271 22.4093C42.83 22.3666 42.6139 22.3903 42.4096 22.3618C42.2861 22.3428 42.165 22.3547 42.0391 22.3523C42.0391 22.3048 42.0154 22.293 41.9726 22.293H40.7804C40.7376 22.293 40.7115 22.3048 40.7115 22.3523C40.4075 22.3357 40.1106 22.4022 39.8066 22.3998H39.6261C39.5834 22.3998 39.5644 22.4165 39.562 22.4568C39.3886 22.4426 39.2247 22.5186 39.0514 22.5043C39.0403 22.5043 39.0296 22.5076 39.0205 22.5138C38.8875 22.6088 38.726 22.5756 38.5811 22.6231C38.4671 22.6611 38.3294 22.6563 38.2201 22.6967C38.1322 22.7276 38.0349 22.7513 37.9494 22.787C37.8424 22.8339 37.7265 22.8566 37.6097 22.8535C37.6121 22.8772 37.6169 22.901 37.586 22.9057C37.5195 22.9105 37.4577 22.9461 37.396 22.9603C37.2179 23.0078 37.0492 23.0743 36.8759 23.1337C36.7239 23.1883 36.5837 23.2691 36.4341 23.3047C36.2631 23.3451 36.1444 23.4805 35.9639 23.5018C35.9083 23.5053 35.8549 23.5243 35.8095 23.5565C35.7605 23.6 35.7042 23.6346 35.6432 23.6586C35.5474 23.6905 35.4563 23.7352 35.3725 23.7916C35.249 23.8723 35.1112 23.927 34.9925 24.0053C34.945 24.041 34.8714 24.0267 34.85 24.0623C34.7621 24.2143 34.584 24.2167 34.4605 24.3117C34.3299 24.4115 34.1755 24.4875 34.0449 24.5848C33.938 24.668 33.824 24.744 33.7195 24.8295C33.5841 24.9482 33.4369 25.0527 33.292 25.1548C33.2184 25.2095 33.1732 25.3116 33.0925 25.3353C32.969 25.3781 32.9025 25.4826 32.8217 25.5586C32.741 25.6393 32.6484 25.7248 32.5652 25.8103C32.4417 25.9386 32.3087 26.0573 32.1781 26.1808C32.0807 26.2758 31.9952 26.3898 31.8884 26.4611C31.7245 26.5703 31.6034 26.7128 31.4704 26.8411C31.335 26.9693 31.1972 27.1023 31.0666 27.2353C30.917 27.3897 30.7484 27.5275 30.6035 27.6866C30.48 27.8291 30.3351 27.9526 30.2021 28.0808C30.0667 28.2138 29.9409 28.3563 29.796 28.4846C29.6535 28.6128 29.5205 28.7458 29.3922 28.886C29.2901 28.9928 29.1809 29.0997 29.074 29.2018C28.9647 29.3063 28.8721 29.4275 28.7367 29.5011C28.7225 29.5676 28.6679 29.5937 28.618 29.627C28.4779 29.7148 28.3662 29.8383 28.2451 29.9523C28.1644 30.0236 28.0979 30.1233 28.0076 30.1756C27.8532 30.2563 27.7464 30.3917 27.611 30.4891C27.4471 30.6078 27.2785 30.7313 27.136 30.8738C27.0647 30.9427 26.9555 30.9546 26.9104 31.0425C26.8724 31.1185 26.775 31.1018 26.7275 31.1612C26.6325 31.2895 26.4781 31.3417 26.3641 31.4462C26.2952 31.508 26.2002 31.5578 26.1195 31.6077C26.0672 31.6338 26.0102 31.6552 25.9675 31.6956C25.8613 31.7902 25.7441 31.8715 25.6184 31.9378C25.5637 31.9711 25.4901 31.9925 25.4497 32.04C25.3737 32.1207 25.2669 32.1587 25.1814 32.23C25.095 32.3022 24.9981 32.3606 24.894 32.4033C24.7562 32.4556 24.6541 32.5506 24.5282 32.6123C24.362 32.6931 24.2029 32.7928 24.0366 32.8736C23.9939 32.8973 23.9202 32.9116 23.8965 32.9686C23.8965 33.009 23.9131 33.0185 23.944 33.0398C24.02 33.0826 24.1007 33.0921 24.1744 33.123C24.2931 33.1776 24.4071 33.2441 24.5259 33.294C24.6399 33.3415 24.7349 33.4175 24.8702 33.4293C24.932 33.4412 24.989 33.4697 25.0365 33.5101C25.1172 33.5813 25.2217 33.6075 25.3072 33.6407C25.3832 33.6668 25.4569 33.7167 25.5447 33.7333C25.5994 33.7428 25.673 33.7405 25.7157 33.7737C25.7917 33.8331 25.8772 33.8663 25.9604 33.9162C26.015 33.9471 26.0862 33.9043 26.1195 33.9518C26.167 34.0207 26.2501 34.0326 26.3024 34.0516C26.4567 34.1038 26.5992 34.168 26.7536 34.2297C26.8819 34.2843 27.0149 34.3223 27.1431 34.3936C27.25 34.4506 27.3901 34.453 27.5112 34.5028C27.5587 34.5266 27.5825 34.5693 27.6347 34.5741C27.7535 34.5812 27.8651 34.6168 27.9672 34.6738C28.0005 34.6976 28.0361 34.7356 28.0765 34.7451C28.1952 34.7688 28.314 34.7973 28.4304 34.8448C28.5372 34.89 28.6512 34.9398 28.7652 34.9541C28.8294 34.9636 28.8412 35.0253 28.903 35.0253C29.0075 35.0253 29.093 35.0942 29.1927 35.1156C29.3281 35.1465 29.4611 35.1963 29.5941 35.2367C29.625 35.2462 29.6749 35.232 29.6891 35.2486C29.7699 35.3555 29.9052 35.3008 30.0145 35.3555C30.1332 35.4148 30.2852 35.4433 30.423 35.4885C30.5441 35.5336 30.6652 35.5787 30.7959 35.5835C30.8172 35.5829 30.8381 35.5896 30.8552 35.6025C30.9454 35.6541 31.0432 35.691 31.145 35.7117C31.1925 35.7212 31.24 35.7307 31.2875 35.7355C31.3754 35.7497 31.4442 35.8091 31.5297 35.8138C31.6532 35.821 31.7601 35.897 31.8907 35.9017C31.9382 35.9041 32.0214 35.897 32.0617 35.9373C32.1449 36.0205 32.266 36.0157 32.361 36.0395C32.5652 36.0941 32.7861 36.0822 32.9975 36.1511C33.121 36.1938 33.2587 36.1796 33.3941 36.2105C33.6102 36.258 33.8454 36.2437 34.0781 36.258C34.5056 36.2841 34.9331 36.2746 35.3559 36.2247C35.4651 36.2105 35.5649 36.2057 35.6717 36.1772C35.8237 36.1392 35.9781 36.1155 36.1325 36.1036C36.2655 36.0917 36.389 36.0347 36.5244 36.049C36.5338 36.0483 36.5429 36.045 36.5505 36.0395C36.6692 35.9682 36.8046 35.9682 36.9257 35.9255C37.0136 35.8993 37.1157 35.9017 37.187 35.859C37.2637 35.8126 37.3482 35.7804 37.4364 35.764C37.5717 35.7402 37.6667 35.6286 37.8045 35.6381L37.8211 35.6286C37.9137 35.5573 38.0277 35.5193 38.1299 35.4861C38.2439 35.4457 38.3531 35.4006 38.46 35.3483C38.6025 35.2771 38.7355 35.1845 38.8732 35.1037C38.916 35.08 38.9754 35.1156 39.0039 35.0491C39.0276 34.9945 39.0775 34.9683 39.1416 34.9541C39.2129 34.9351 39.2936 34.9066 39.3221 34.8258C39.3364 34.7926 39.3625 34.7878 39.391 34.7926C39.429 34.7926 39.4622 34.7736 39.4812 34.7403C39.5691 34.6097 39.7187 34.5503 39.8375 34.4625C39.9634 34.377 40.0607 34.2606 40.1914 34.1822C40.3457 34.092 40.4574 33.9471 40.5809 33.8236C40.6877 33.7143 40.7875 33.6027 40.8991 33.5053C40.987 33.4293 41.0274 33.3248 41.1129 33.2488C41.1746 33.1966 41.2696 33.142 41.2934 33.0588C41.3314 32.933 41.4359 32.8807 41.5214 32.8023C41.5525 32.7362 41.5979 32.6778 41.6544 32.6313L41.6876 32.5791C41.7327 32.553 41.709 32.4841 41.7589 32.4556C41.8444 32.3986 41.8776 32.2917 41.9156 32.211C41.975 32.0851 42.0462 31.964 42.1175 31.8476C42.1935 31.7193 42.241 31.5768 42.336 31.4581C42.4072 31.3655 42.4524 31.2443 42.5022 31.1351C42.5945 30.9461 42.6911 30.7592 42.792 30.5746C42.8517 30.4644 42.9072 30.3519 42.9582 30.2373C43.0105 30.1186 43.077 30.007 43.134 29.893C43.1886 29.7742 43.2646 29.665 43.3074 29.5486C43.362 29.4037 43.4427 29.2826 43.5045 29.1448C43.5235 29.095 43.5187 29.0356 43.552 29C43.6227 28.924 43.6755 28.8331 43.7064 28.734C43.761 28.5915 43.8821 28.4775 43.8964 28.3183L43.9059 28.3136C43.9605 28.2708 43.9795 28.2043 44.0104 28.1473C44.0579 28.0571 44.0816 27.9526 44.141 27.8695C44.2336 27.7388 44.2859 27.594 44.3571 27.4538C44.4046 27.3683 44.4379 27.271 44.4877 27.1926C44.5685 27.0643 44.6231 26.9195 44.7015 26.7936C44.7549 26.7031 44.7995 26.6077 44.8345 26.5086C44.8582 26.4421 44.9057 26.378 44.9461 26.3186C45.0197 26.2046 45.072 26.074 45.167 25.9718C45.2074 25.9291 45.205 25.8697 45.2525 25.8198C45.3356 25.7391 45.3784 25.6298 45.4425 25.5348C45.49 25.4636 45.5256 25.3781 45.5826 25.3235C45.6837 25.2192 45.7715 25.1027 45.8439 24.9767C45.9175 24.858 46.0125 24.7535 46.098 24.6537C46.2357 24.4875 46.383 24.3212 46.5374 24.155L46.9506 23.718C47.0314 23.6325 47.01 23.6135 46.9506 23.5541" fill="#133C9A"/>
</g>
<defs>
<clipPath id="clip0_28_521">
<rect width="38" height="38" fill="white" transform="translate(9 9)"/>
</clipPath>
</defs>
</svg>
