<svg width="56" height="56" viewBox="0 0 56 56" fill="none" xmlns="http://www.w3.org/2000/svg">
<path d="M22.4799 11.6071C18.3497 12.0572 14.5975 13.8073 11.9043 16.5374C10.8564 17.5894 9.98397 18.8025 9.32015 20.1306C8.31922 22.1227 7.8738 24.3477 8.03079 26.5715C8.18777 28.7953 8.94135 30.9357 10.2122 32.7674C10.9422 33.8624 12.1483 35.2275 13.2454 36.1976L12.7483 40.0618L12.6943 40.2238C12.6773 40.2738 12.6773 40.3268 12.6723 40.3758L12.6623 40.5008L12.6723 40.6248C12.6923 40.8357 12.7651 41.0382 12.8841 41.2134C13.0032 41.3886 13.1645 41.531 13.3532 41.6272C13.5419 41.7235 13.7519 41.7705 13.9636 41.764C14.1754 41.7575 14.382 41.6976 14.5645 41.5899H14.5865L14.6615 41.5359L15.8515 40.9508L19.3917 39.1887C21.0738 39.6658 22.8199 39.9048 24.572 39.8938C26.737 39.8998 28.8864 39.5292 30.9244 38.7987C30.4303 38.6399 30.0053 38.3168 29.7202 37.8831C29.4352 37.4494 29.3071 36.9312 29.3573 36.4146C27.2495 37.085 25.0242 37.3047 22.8259 37.0596L22.4739 37.0106C21.6812 36.9074 20.897 36.7463 20.1278 36.5286C19.9198 36.4647 19.701 36.4432 19.4845 36.4656C19.2681 36.4879 19.0583 36.5535 18.8677 36.6586L18.7707 36.7076L15.8565 38.4037L15.7325 38.4797C15.6625 38.5177 15.6295 38.5337 15.5925 38.5337C15.5668 38.5324 15.5417 38.5261 15.5185 38.515C15.4953 38.5039 15.4746 38.4883 15.4574 38.4692C15.4403 38.45 15.4272 38.4276 15.4188 38.4033C15.4104 38.379 15.4069 38.3533 15.4085 38.3277L15.5165 37.8837L15.6465 37.4006L15.8565 36.6046L16.0995 35.7155C16.179 35.4736 16.1788 35.2125 16.0991 34.9706C16.0193 34.7288 15.8643 34.5188 15.6565 34.3715C14.5143 33.5308 13.5206 32.5053 12.7163 31.3373C11.7103 29.8958 11.1124 28.2093 10.9857 26.4561C10.8589 24.7028 11.2081 22.9479 11.9963 21.3767C12.5333 20.3181 13.2339 19.3508 14.0724 18.5105C16.2836 16.2564 19.3867 14.8203 22.8259 14.4513C24.016 14.3213 25.2161 14.3213 26.4051 14.4513C29.8213 14.8413 32.9145 16.2944 35.1156 18.5375C35.9463 19.3844 36.6376 20.3575 37.1638 21.4207C37.839 22.7681 38.1926 24.2538 38.1968 25.761C38.1968 25.918 38.1798 26.075 38.1748 26.227C38.6162 25.958 39.1348 25.8443 39.6482 25.9041C40.1616 25.9639 40.6403 26.1937 41.008 26.557L41.111 26.682C41.2879 24.4491 40.8522 22.2103 39.8509 20.2066C39.1954 18.8803 38.3321 17.6673 37.2938 16.6134C34.4545 13.7983 30.7344 12.044 26.7562 11.6441C25.3371 11.4639 23.9018 11.4515 22.4799 11.6071Z" fill="#0087F3"/>
<path d="M34.6816 37.7806C34.6308 37.8301 34.5902 37.8892 34.5621 37.9544C34.5341 38.0196 34.5192 38.0896 34.5183 38.1606C34.5173 38.2316 34.5304 38.302 34.5567 38.3679C34.583 38.4338 34.6221 38.4939 34.6716 38.5447C34.6933 38.5719 34.7206 38.5941 34.7516 38.6097C35.9474 39.7163 36.7201 41.2051 36.9368 42.8199C37.1024 43.4064 37.4932 43.9035 38.024 44.2029C38.5547 44.5022 39.1824 44.5796 39.7699 44.418C40.3537 44.2644 40.8525 43.8852 41.1567 43.3639C41.4609 42.8425 41.5455 42.2216 41.392 41.6379C41.392 41.6329 41.386 41.6279 41.386 41.6169C41.2617 41.1713 41.0058 40.7736 40.6518 40.4758C40.2978 40.178 39.8622 39.994 39.4019 39.9478C37.8889 39.6701 36.5075 38.9073 35.4667 37.7746C35.36 37.6752 35.2193 37.6203 35.0734 37.6214C34.9276 37.6226 34.7877 37.6795 34.6826 37.7806H34.6816Z" fill="#FE6200"/>
<path d="M45.0902 33.5754C44.7002 33.6784 44.3432 33.8844 44.0522 34.1714H44.0462C43.6738 34.5377 43.4405 35.0221 43.3861 35.5415C43.104 37.0471 42.3348 38.4182 41.197 39.4437C41.1457 39.4928 41.1047 39.5516 41.0761 39.6165C41.0476 39.6815 41.0321 39.7515 41.0306 39.8225C41.0291 39.8934 41.0416 39.964 41.0674 40.0301C41.0933 40.0962 41.1318 40.1566 41.181 40.2078L41.186 40.2138C41.2903 40.3189 41.4319 40.3784 41.58 40.3793C41.728 40.3803 41.8704 40.3226 41.976 40.2188C42.003 40.1918 42.024 40.1698 42.04 40.1378C43.1681 38.9507 44.671 38.1888 46.2953 37.9807C46.5862 37.9048 46.8593 37.7721 47.0988 37.5903C47.3383 37.4084 47.5394 37.181 47.6906 36.9211C47.8419 36.6612 47.9402 36.374 47.98 36.076C48.0197 35.7779 48.0002 35.475 47.9224 35.1845C47.7584 34.5967 47.3686 34.0975 46.838 33.7959C46.3075 33.4943 45.6792 33.4147 45.0902 33.5744V33.5754Z" fill="#0087F3"/>
<path d="M36.4177 31.2993L36.3797 31.3373C35.2484 32.5681 33.7179 33.3588 32.0595 33.5694C30.8384 33.8894 30.1034 35.1245 30.4274 36.3396C30.5304 36.7346 30.7464 37.0976 31.0374 37.3846C31.4736 37.8126 32.0605 38.0519 32.6715 38.051C33.2826 38.05 33.8688 37.8089 34.3036 37.3796C34.6716 37.0106 34.9036 36.5286 34.9636 36.0135C35.2501 34.5073 36.0231 33.1368 37.1638 32.1123C37.2703 32.0167 37.335 31.8831 37.3442 31.7403C37.3534 31.5975 37.3062 31.4567 37.2128 31.3483L37.2068 31.3423C37.1067 31.2339 36.9683 31.1687 36.821 31.1607C36.6736 31.1527 36.529 31.2024 36.4177 31.2993Z" fill="#FCCC01"/>
<path d="M38.5588 27.148C38.1765 27.2513 37.8279 27.453 37.5478 27.7331C37.1217 28.1546 36.8801 28.7278 36.876 29.3271C36.8719 29.9264 37.1055 30.5029 37.5258 30.9303L37.5528 30.9583C37.9258 31.3263 38.4128 31.5543 38.9319 31.6133C40.4448 31.8889 41.8277 32.6475 42.8731 33.7754C42.9758 33.8792 43.1154 33.9382 43.2614 33.9393C43.4074 33.9404 43.5479 33.8836 43.6521 33.7814C43.7106 33.7253 43.7557 33.6568 43.784 33.5809C43.8124 33.5051 43.8233 33.4238 43.816 33.3431C43.8087 33.2625 43.7834 33.1845 43.7419 33.1149C43.7003 33.0454 43.6437 32.9861 43.5761 32.9414C42.3807 31.8367 41.6082 30.3494 41.392 28.7361C41.062 27.5221 39.7919 26.812 38.5588 27.148Z" fill="#28BD00"/>
</svg>
