<svg width="56" height="56" viewBox="0 0 56 56" fill="none" xmlns="http://www.w3.org/2000/svg">
<path d="M28.3105 47.0777C24.8749 47.0777 21.7214 46.0053 19.691 44.4038C18.6599 44.6911 17.3409 45.1534 16.5086 45.7266C15.7964 46.2169 15.8851 46.7169 16.0135 46.9188C16.5771 47.8055 25.6819 47.485 28.3105 47.2088V47.0777Z" fill="#FAAD08"/>
<path d="M27.6914 47.0777C31.1269 47.0777 34.2806 46.0053 36.3109 44.4038C37.342 44.6911 38.6609 45.1534 39.4934 45.7266C40.2056 46.2169 40.1167 46.7169 39.9884 46.9188C39.4248 47.8055 30.32 47.485 27.6914 47.2088V47.0777H27.6914Z" fill="#FAAD08"/>
<path d="M27.7123 26.388C33.367 26.3504 37.8987 25.2829 39.4343 24.8733C39.8004 24.7756 39.9962 24.6006 39.9962 24.6006C39.9975 24.5503 40.0194 23.7026 40.0194 23.2653C40.0194 15.9006 36.4556 8.50047 27.6914 8.5C18.9273 8.50047 15.3633 15.9006 15.3633 23.2653C15.3633 23.7026 15.3854 24.5503 15.3867 24.6006C15.3867 24.6006 15.546 24.7643 15.838 24.8436C17.2557 25.2284 21.8728 26.3496 27.6707 26.388H27.7123Z" fill="black"/>
<path d="M43.2751 32.6131C42.9271 31.4951 42.452 30.1913 41.971 28.9392C41.971 28.9392 41.6943 28.9051 41.5545 28.9456C37.2381 30.1973 32.0066 30.995 28.0198 30.9469H27.9786C24.0141 30.9945 18.8181 30.2059 14.5162 28.9665C14.3518 28.9192 14.0273 28.9392 14.0273 28.9392C13.5463 30.1913 13.0713 31.4951 12.7233 32.6131C11.0639 37.9443 11.6014 40.1505 12.0108 40.2C12.8893 40.306 15.4302 36.1867 15.4302 36.1867C15.4302 40.3724 19.2157 46.7995 27.8841 46.8586C27.9608 46.8583 28.0375 46.8583 28.1142 46.8586C36.7827 46.7995 40.5681 40.3724 40.5681 36.1868C40.5681 36.1868 43.109 40.306 43.9876 40.2C44.3969 40.1506 44.9345 37.9443 43.2751 32.6131Z" fill="black"/>
<path d="M25.0234 19.6327C23.8276 19.6859 22.8056 18.3424 22.7415 16.6344C22.6765 14.9253 23.5926 13.4968 24.7887 13.4434C25.9834 13.3909 27.0047 14.7338 27.0696 16.4424C27.135 18.1516 26.2187 19.5798 25.0234 19.6327ZM33.8812 16.6344C33.8172 18.3424 32.7951 19.6858 31.5993 19.6327C30.4041 19.5797 29.4877 18.1516 29.5531 16.4425C29.618 14.7338 30.6392 13.3908 31.834 13.4434C33.0301 13.4969 33.9462 14.9253 33.8812 16.6344Z" fill="white"/>
<path d="M35.7178 21.849C35.4039 21.0942 32.2435 20.2534 28.3308 20.2534H28.2888C24.3761 20.2534 21.2156 21.0942 20.9018 21.849C20.8869 21.8828 20.879 21.9193 20.8789 21.9563C20.8789 22.0107 20.8958 22.0598 20.922 22.1014C21.1864 22.52 24.696 24.5881 28.2888 24.5881H28.3308C31.9236 24.5881 35.4331 22.5201 35.6976 22.1015C35.7254 22.0581 35.7403 22.0076 35.7405 21.956C35.7405 21.9176 35.7319 21.8816 35.7178 21.849Z" fill="#FAAD08"/>
<path d="M26.4481 17.0376C26.5021 17.7185 26.132 18.3234 25.6224 18.3895C25.1121 18.4557 24.6551 17.9573 24.6008 17.2761C24.5475 16.5948 24.9172 15.99 25.4259 15.9244C25.937 15.858 26.3948 16.3568 26.4481 17.0376ZM29.5811 17.3777C29.6896 17.2012 30.4308 16.2732 31.9649 16.6111C32.3678 16.6998 32.5542 16.8304 32.5936 16.8818C32.6516 16.9577 32.6675 17.0657 32.6087 17.2112C32.492 17.4994 32.2513 17.4915 32.1177 17.4351C32.0316 17.3987 30.9631 16.7541 29.9788 17.716C29.9112 17.7822 29.79 17.8049 29.6752 17.7264C29.5604 17.6478 29.5129 17.4884 29.5811 17.3777Z" fill="black"/>
<path d="M28.0201 31.1009H27.9787C25.2542 31.1331 21.9507 30.7793 18.7516 30.1614C18.4777 31.7156 18.3123 33.669 18.4543 35.9987C18.8131 41.887 22.3811 45.588 27.8885 45.642H28.1124C33.6197 45.588 37.1878 41.887 37.5466 35.9987C37.6887 33.6688 37.5232 31.7154 37.2492 30.1611C34.0495 30.7793 30.7454 31.1334 28.0201 31.1009Z" fill="white"/>
<path d="M20.2617 30.7803V36.6721C20.2617 36.6721 23.0458 37.2166 25.8348 36.8397V31.4049C24.0679 31.308 22.1622 31.0919 20.2617 30.7803Z" fill="#EB1C26"/>
<path d="M40.1828 24.5879C40.1828 24.5879 34.9548 26.3189 28.0217 26.3682H27.9805C21.0588 26.3191 15.8372 24.5938 15.8193 24.5879L14.0684 29.1718C18.448 30.5566 23.8762 31.4492 27.9805 31.3973L28.0216 31.3973C32.1262 31.4494 37.5536 30.5568 41.9339 29.1718L40.1828 24.5879Z" fill="#EB1C26"/>
</svg>
