<svg width="56" height="56" viewBox="0 0 56 56" fill="none" xmlns="http://www.w3.org/2000/svg">
<path d="M28 8.60449C17.2315 8.60449 8.5 17.2881 8.5 28C8.5 38.712 17.2315 47.3956 28 47.3956C38.7685 47.3956 47.5 38.712 47.5 28C47.5 17.2881 38.7685 8.60449 28 8.60449ZM38.1026 19.1946L34.59 37.4976C34.3462 38.799 33.6324 39.1124 32.653 38.5117L27.3079 34.1417L24.7398 36.8969C24.4439 37.2277 24.1958 37.4976 23.6691 37.4976L24.0304 31.4517L33.9458 21.5624C34.3854 21.1184 33.8544 20.9052 33.2754 21.2925L21.0314 29.8543L15.7385 27.9957C14.6025 27.6388 14.5894 26.7682 15.9953 26.1371L36.614 17.336C37.5585 16.8659 38.4595 17.5928 38.1026 19.1946Z" fill="#4DA8EF"/>
</svg>
