<svg width="56" height="56" viewBox="0 0 56 56" fill="none" xmlns="http://www.w3.org/2000/svg">
<g clip-path="url(#clip0_26_191)">
<path d="M21.3506 21.5195C20.6743 21.5195 19.998 21.9704 19.998 22.6467C19.998 23.323 20.6743 23.7739 21.3506 23.7739C22.0269 23.7739 22.4778 23.323 22.4778 22.6467C22.4778 21.9422 22.0269 21.5195 21.3506 21.5195ZM30.5089 28.0571C30.058 28.0571 29.6353 28.5362 29.6353 28.9588C29.6353 29.4379 30.0862 29.8606 30.5089 29.8606C31.1852 29.8606 31.6361 29.4097 31.6361 28.9588C31.6361 28.508 31.1852 28.0571 30.5089 28.0571ZM27.6064 23.7739C28.2827 23.7739 28.7336 23.2948 28.7336 22.6467C28.7336 21.9704 28.2827 21.5195 27.6064 21.5195C26.9301 21.5195 26.2538 21.9704 26.2538 22.6467C26.2538 23.323 26.9301 23.7739 27.6064 23.7739ZM35.4121 28.0571C34.9612 28.0571 34.5385 28.5362 34.5385 28.9588C34.5385 29.4379 34.9894 29.8606 35.4121 29.8606C36.0884 29.8606 36.5392 29.4097 36.5392 28.9588C36.5392 28.508 36.0884 28.0571 35.4121 28.0571Z" fill="#28C445"/>
<path d="M27.9436 8.61279C17.2074 8.61279 8.5 17.3202 8.5 28.0564C8.5 38.7927 17.2074 47.5001 27.9436 47.5001C38.6799 47.5001 47.3873 38.7927 47.3873 28.0564C47.3873 17.3202 38.6799 8.61279 27.9436 8.61279ZM24.2522 33.0442C23.125 33.0442 22.2233 32.8187 21.1525 32.5651L18.0527 34.1431L18.9263 31.4098C16.7001 29.8317 15.3475 27.7746 15.3475 25.3231C15.3475 21.0116 19.3772 17.6301 24.2522 17.6301C28.6199 17.6301 32.4805 20.3353 33.2413 23.9705C32.9595 23.9423 32.6777 23.9141 32.396 23.9141C28.1691 23.9705 24.8439 27.1547 24.8439 31.0998C24.8439 31.7479 24.9566 32.3678 25.1257 32.9878C24.8439 33.016 24.534 33.0442 24.2522 33.0442ZM37.44 36.2002L38.1163 38.4546L35.6929 37.102C34.8194 37.3274 33.9176 37.5528 33.0159 37.5528C28.7608 37.5528 25.4075 34.6222 25.4075 30.9871C25.3793 27.3801 28.7327 24.4495 32.9595 24.4495C36.9892 24.4495 40.5397 27.4083 40.5397 31.0152C40.5397 33.0441 39.2153 34.8476 37.44 36.2002Z" fill="#28C445"/>
</g>
<defs>
<clipPath id="clip0_26_191">
<rect width="39" height="39" fill="white" transform="translate(8.5 8.5)"/>
</clipPath>
</defs>
</svg>
