<svg width="56" height="56" viewBox="0 0 56 56" fill="none" xmlns="http://www.w3.org/2000/svg">
<path d="M41.5664 9.5C44.291 9.5 46.5 11.709 46.5 14.4336V41.5664C46.5 44.291 44.291 46.5 41.5664 46.5H14.4336C11.709 46.5 9.5 44.291 9.5 41.5664V14.4336C9.5 11.709 11.709 9.5 14.4336 9.5H41.5664ZM28.0049 15.666C21.2026 15.666 15.6701 21.1964 15.667 27.9941C15.6639 30.3155 16.3177 32.5901 17.5527 34.5557L17.8457 35.0225L16.5996 39.5713L21.2676 38.3477L21.7188 38.6152C23.6117 39.7392 25.7829 40.3332 27.9961 40.334H28.001C34.7987 40.3338 40.3305 34.8027 40.333 28.0039C40.3336 24.71 39.0525 21.6116 36.7236 19.2812C34.395 16.9512 31.2994 15.6669 28.0049 15.666ZM23.457 21.1514C23.722 21.1625 24.0145 21.1757 24.292 21.793C24.6219 22.5262 25.3429 24.3584 25.4346 24.5449C25.5274 24.7302 25.589 24.9467 25.4658 25.1943C25.3425 25.4412 25.2798 25.5961 25.0947 25.8125C24.9087 26.0292 24.7046 26.2964 24.5381 26.4629C24.3522 26.648 24.1598 26.8487 24.376 27.2188C24.5926 27.59 25.3365 28.8038 26.4385 29.7861C27.8554 31.0491 29.0497 31.4397 29.4199 31.626C29.7907 31.8118 30.0072 31.7809 30.2236 31.5332C30.4403 31.2863 31.1504 30.4507 31.3975 30.0801C31.6453 29.7093 31.8925 29.7714 32.2324 29.8945C32.5735 30.0182 34.3948 30.9137 34.7656 31.0996C35.136 31.2858 35.3826 31.3783 35.4756 31.5332C35.5679 31.6878 35.5677 32.4293 35.2588 33.2949C34.95 34.1613 33.437 34.9962 32.7568 35.0576C32.0769 35.1193 31.439 35.3647 28.3076 34.1299C24.5394 32.6435 22.1588 28.7801 21.9736 28.5332C21.7875 28.2847 20.46 26.5227 20.46 24.6992C20.46 22.8751 21.4188 21.9787 21.7588 21.6074C22.0989 21.2364 22.5002 21.1436 22.7471 21.1436C22.994 21.1436 23.2407 21.1421 23.457 21.1514Z" fill="#40C351"/>
</svg>
